<svg width="56" height="56" viewBox="0 0 56 56" fill="none" xmlns="http://www.w3.org/2000/svg">
<path d="M51.1465 39.0833C50.3765 45.29 45.2898 50.3767 39.0832 51.1467C35.3265 51.6133 31.8265 50.5867 29.0965 48.58C27.5332 47.4367 27.9065 45.01 29.7732 44.45C36.7965 42.3267 42.3265 36.7733 44.4732 29.75C45.0332 27.9067 47.4598 27.5333 48.6032 29.0733C50.5865 31.8267 51.6132 35.3267 51.1465 39.0833Z" fill="currentColor"/>
<path d="M23.3098 4.66666C13.0198 4.66666 4.6665 13.02 4.6665 23.31C4.6665 33.6 13.0198 41.9533 23.3098 41.9533C33.5998 41.9533 41.9532 33.6 41.9532 23.31C41.9298 13.02 33.5998 4.66666 23.3098 4.66666ZM21.1165 20.6967L26.7398 22.6567C28.7698 23.38 29.7498 24.8033 29.7498 26.9967C29.7498 29.5167 27.7432 31.5933 25.2932 31.5933H25.0832V31.71C25.0832 32.6667 24.2898 33.46 23.3332 33.46C22.3765 33.46 21.5832 32.6667 21.5832 31.71V31.57C18.9932 31.4533 16.9165 29.2833 16.9165 26.5767C16.9165 25.62 17.7098 24.8267 18.6665 24.8267C19.6232 24.8267 20.4165 25.62 20.4165 26.5767C20.4165 27.4167 21.0232 28.0933 21.7698 28.0933H25.2698C25.8065 28.0933 26.2265 27.6033 26.2265 26.9967C26.2265 26.18 26.0865 26.1333 25.5498 25.9467L19.9265 23.9867C17.9198 23.2867 16.9165 21.8633 16.9165 19.6467C16.9165 17.1267 18.9232 15.05 21.3732 15.05H21.5832V14.9567C21.5832 14 22.3765 13.2067 23.3332 13.2067C24.2898 13.2067 25.0832 14 25.0832 14.9567V15.0967C27.6732 15.2133 29.7498 17.3833 29.7498 20.09C29.7498 21.0467 28.9565 21.84 27.9998 21.84C27.0432 21.84 26.2498 21.0467 26.2498 20.09C26.2498 19.25 25.6432 18.5733 24.8965 18.5733H21.3965C20.8598 18.5733 20.4398 19.0633 20.4398 19.67C20.4165 20.4633 20.5565 20.51 21.1165 20.6967Z" fill="currentColor"/>
</svg>
