<svg width="56" height="56" viewBox="0 0 56 56" fill="none" xmlns="http://www.w3.org/2000/svg">
<path d="M26.25 42.5833H21C18.4333 42.5833 16.3333 44.6833 16.3333 47.25V47.8333H14C13.0433 47.8333 12.25 48.6267 12.25 49.5833C12.25 50.54 13.0433 51.3333 14 51.3333H42C42.9567 51.3333 43.75 50.54 43.75 49.5833C43.75 48.6267 42.9567 47.8333 42 47.8333H39.6667V47.25C39.6667 44.6833 37.5667 42.5833 35 42.5833H29.75V37.24C29.1667 37.31 28.5833 37.3333 28 37.3333C27.4167 37.3333 26.8333 37.31 26.25 37.24V42.5833Z" fill="currentColor"/>
<path d="M43.1198 27.16C44.6598 26.5767 46.0132 25.62 47.0865 24.5467C49.2565 22.1433 50.6798 19.2733 50.6798 15.9133C50.6798 12.5533 48.0432 9.91666 44.6832 9.91666H43.3765C41.8598 6.81332 38.6865 4.66666 34.9998 4.66666H20.9998C17.3132 4.66666 14.1398 6.81332 12.6232 9.91666H11.3165C7.95649 9.91666 5.31982 12.5533 5.31982 15.9133C5.31982 19.2733 6.74316 22.1433 8.91316 24.5467C9.98649 25.62 11.3398 26.5767 12.8798 27.16C15.3065 33.1333 21.1398 37.3333 27.9998 37.3333C34.8598 37.3333 40.6932 33.1333 43.1198 27.16ZM34.6265 19.7167L33.1798 21.49C32.9465 21.7467 32.7832 22.26 32.8065 22.61L32.9465 24.8967C33.0398 26.2967 32.0365 27.02 30.7298 26.5067L28.6065 25.6667C28.2798 25.55 27.7198 25.55 27.3932 25.6667L25.2698 26.5067C23.9632 27.02 22.9598 26.2967 23.0532 24.8967L23.1932 22.61C23.2165 22.26 23.0532 21.7467 22.8198 21.49L21.3732 19.7167C20.4632 18.6433 20.8598 17.4533 22.2132 17.1033L24.4298 16.5433C24.7798 16.45 25.1998 16.1233 25.3865 15.82L26.6232 13.9067C27.3932 12.7167 28.6065 12.7167 29.3765 13.9067L30.6132 15.82C30.7998 16.1233 31.2198 16.45 31.5698 16.5433L33.7865 17.1033C35.1398 17.4533 35.5365 18.6433 34.6265 19.7167Z" fill="currentColor"/>
</svg>
