<svg width="56" height="56" viewBox="0 0 56 56" fill="none" xmlns="http://www.w3.org/2000/svg">
<path d="M37.6598 6.90667L16.5898 13.9067C2.42645 18.6433 2.42645 26.3667 16.5898 31.08L22.8431 33.1567L24.9198 39.41C29.6331 53.5733 37.3798 53.5733 42.0931 39.41L49.1164 18.3633C52.2431 8.91333 47.1098 3.75667 37.6598 6.90667ZM38.4064 19.46L29.5398 28.3733C29.1898 28.7233 28.7465 28.8867 28.3031 28.8867C27.8598 28.8867 27.4165 28.7233 27.0665 28.3733C26.3898 27.6967 26.3898 26.5767 27.0665 25.9L35.9331 16.9867C36.6098 16.31 37.7298 16.31 38.4064 16.9867C39.0831 17.6633 39.0831 18.7833 38.4064 19.46Z" fill="currentColor"/>
</svg>
