<svg width="324" height="48" viewBox="0 0 324 48" fill="none" xmlns="http://www.w3.org/2000/svg">
<path d="M53.6458 37.84L44.7858 47.34C44.5966 47.5498 44.365 47.717 44.1066 47.8308C43.848 47.9446 43.5682 48.0022 43.2858 48H1.28582C1.08508 47.9982 0.889126 47.9384 0.721628 47.8278C0.554132 47.7172 0.422244 47.5604 0.341888 47.3764C0.261532 47.1924 0.236142 46.9892 0.26878 46.791C0.301418 46.593 0.390692 46.4086 0.525824 46.26L9.38582 36.76C9.78176 36.357 10.321 36.127 10.8858 36.12H52.8858C53.0866 36.1164 53.284 36.1722 53.4532 36.2802C53.6224 36.3884 53.756 36.544 53.837 36.7276C53.9182 36.9114 53.9434 37.1148 53.9094 37.3128C53.8754 37.5106 53.7836 37.694 53.6458 37.84ZM44.7858 18.7201C44.6022 18.4994 44.373 18.3209 44.1142 18.1967C43.8554 18.0724 43.5728 18.0054 43.2858 18.0001H1.28582C1.08507 17.9965 0.887716 18.0522 0.7185 18.1603C0.549284 18.2684 0.41573 18.424 0.33458 18.6076C0.253428 18.7913 0.228286 18.9948 0.262308 19.1927C0.296328 19.3906 0.387996 19.574 0.525824 19.7201L9.38582 29.22C9.56374 29.4518 9.79022 29.6416 10.0494 29.7764C10.3085 29.9112 10.594 29.9874 10.8858 30H52.8858C53.0866 30.0036 53.284 29.948 53.4532 29.8398C53.6224 29.7318 53.756 29.5762 53.837 29.3924C53.9182 29.2088 53.9434 29.0052 53.9094 28.8074C53.8754 28.6096 53.7836 28.426 53.6458 28.28L44.7858 18.7201ZM1.28582 11.8801H43.2858C43.8506 11.8731 44.3898 11.643 44.7858 11.2401L53.6458 1.74006C53.781 1.59159 53.8702 1.40719 53.9028 1.2091C53.9354 1.01101 53.91 0.807714 53.8298 0.623742C53.7494 0.439768 53.6176 0.282984 53.45 0.172314C53.2826 0.061644 53.0866 0.00181825 52.8858 5.79615e-05H10.8858C10.6034 -0.00209236 10.3237 0.0556114 10.0651 0.16937C9.80657 0.283128 9.57508 0.450362 9.38582 0.660058L0.525824 10.1601C0.387996 10.3061 0.296328 10.4895 0.262308 10.6874C0.228286 10.8853 0.253428 11.0888 0.33458 11.2725C0.41573 11.4561 0.549284 11.6117 0.7185 11.7198C0.887716 11.8279 1.08507 11.8837 1.28582 11.8801Z" fill="url(#paint0_linear_23_97)"/>
<path d="M105.546 20.3002H83.0863V12.9001H111.386V5.50011H83.0863C82.1171 5.49485 81.1565 5.68053 80.2591 6.04655C79.3617 6.41257 78.5451 6.95177 77.8561 7.63335C77.1671 8.31493 76.6191 9.12557 76.2433 10.0189C75.8677 10.9123 75.6715 11.8709 75.6663 12.8401V20.3602C75.6715 21.3292 75.8677 22.288 76.2433 23.1812C76.6191 24.0746 77.1671 24.8852 77.8561 25.5668C78.5451 26.2484 79.3617 26.7876 80.2591 27.1536C81.1565 27.5196 82.1171 27.7054 83.0863 27.7002H105.506V35.1002H76.1263V42.5002H105.546C106.525 42.5186 107.497 42.343 108.407 41.9832C109.317 41.6232 110.147 41.0866 110.848 40.4038C111.549 39.7212 112.108 38.9062 112.492 38.0062C112.877 37.106 113.078 36.1388 113.086 35.1602V27.6402C113.078 26.6614 112.877 25.6942 112.492 24.794C112.108 23.894 111.549 23.079 110.848 22.3964C110.147 21.7136 109.317 21.177 108.407 20.8172C107.497 20.4572 106.525 20.2816 105.546 20.3002Z" fill="white"/>
<path d="M149.086 5.50024H126.526C125.555 5.49234 124.593 5.67606 123.693 6.0409C122.793 6.40574 121.974 6.94452 121.283 7.62636C120.592 8.30822 120.042 9.11972 119.665 10.0144C119.288 10.9091 119.091 11.8694 119.086 12.8402V35.1602C119.091 36.1294 119.288 37.088 119.663 37.9814C120.039 38.8748 120.587 39.6854 121.276 40.367C121.965 41.0486 122.782 41.5878 123.679 41.9538C124.576 42.3198 125.537 42.5056 126.506 42.5002H149.086C151.045 42.5108 152.929 41.7442 154.324 40.3682C155.718 38.9922 156.51 37.1194 156.526 35.1602V12.8402C156.51 10.8811 155.718 9.00822 154.324 7.63226C152.929 6.2563 151.045 5.4896 149.086 5.50024ZM149.086 35.1002H126.586V12.9002H149.086V35.1002Z" fill="white"/>
<path d="M228.086 5.50035H206.086C205.116 5.49507 204.156 5.68075 203.258 6.04677C202.362 6.41279 201.544 6.95199 200.856 7.63357C200.166 8.31517 199.618 9.12579 199.244 10.0192C198.868 10.9126 198.671 11.8712 198.666 12.8404V42.5004H206.146V30.3404H228.146V42.5004H235.626V12.8404C235.618 11.8617 235.416 10.8944 235.032 9.99427C234.648 9.09417 234.09 8.27921 233.388 7.59657C232.686 6.91393 231.858 6.37715 230.946 6.01733C230.036 5.65753 229.064 5.48179 228.086 5.50035ZM228.086 22.9404H206.086V12.9404H228.086V22.9404Z" fill="white"/>
<path d="M315.666 5.50011H293.666C292.696 5.49485 291.736 5.68053 290.838 6.04655C289.942 6.41257 289.124 6.95177 288.436 7.63335C287.746 8.31493 287.198 9.12557 286.824 10.0189C286.448 10.9123 286.252 11.8709 286.246 12.8401V42.5002H293.726V30.3402H315.626V42.5002H323.086V12.8401C323.08 11.8709 322.884 10.9123 322.508 10.0189C322.134 9.12557 321.586 8.31493 320.896 7.63335C320.208 6.95177 319.39 6.41257 318.494 6.04655C317.596 5.68053 316.636 5.49485 315.666 5.50011ZM315.666 22.9402H293.706V12.9401H315.606L315.666 22.9402Z" fill="white"/>
<path d="M272.086 35.1H269.086L258.386 8.58004C258.012 7.66756 257.376 6.8872 256.556 6.33858C255.736 5.78998 254.772 5.49804 253.786 5.50004H247.086C245.78 5.4947 244.524 6.00734 243.594 6.9257C242.664 7.84406 242.136 9.09334 242.126 10.4V42.5H249.606V12.9H252.606L263.326 39.42C263.7 40.3326 264.336 41.1128 265.156 41.6614C265.976 42.2102 266.94 42.502 267.926 42.5H274.586C275.232 42.5026 275.872 42.378 276.47 42.1332C277.068 41.8884 277.612 41.5282 278.07 41.0732C278.53 40.6182 278.894 40.0772 279.144 39.4814C279.394 38.8854 279.524 38.2462 279.526 37.6V5.60004H272.086V35.1Z" fill="white"/>
<path d="M170.626 5.5H163.086V35.16C163.091 36.1292 163.288 37.0878 163.663 37.9812C164.039 38.8746 164.587 39.6852 165.276 40.3668C165.965 41.0484 166.782 41.5876 167.679 41.9536C168.576 42.3196 169.537 42.5052 170.506 42.5H193.086V35.1H170.626V5.5Z" fill="white"/>
<defs>
<linearGradient id="paint0_linear_23_97" x1="4.78582" y1="49.14" x2="48.8258" y2="-0.499941" gradientUnits="userSpaceOnUse">
<stop offset="0.08" stop-color="#9945FF"/>
<stop offset="0.3" stop-color="#8752F3"/>
<stop offset="0.5" stop-color="#5497D5"/>
<stop offset="0.6" stop-color="#43B4CA"/>
<stop offset="0.72" stop-color="#28E0B9"/>
<stop offset="0.97" stop-color="#19FB9B"/>
</linearGradient>
</defs>
</svg>
