<svg width="112" height="96" viewBox="0 0 112 96" fill="none" xmlns="http://www.w3.org/2000/svg">
<path d="M5.3849 86.7645C4.6674 86.77 3.95151 86.6955 3.25048 86.5425C2.65315 86.4148 2.07783 86.2 1.54294 85.9051C1.08601 85.6578 0.695502 85.3039 0.404581 84.8734C0.131525 84.4498 -0.00916199 83.9544 0.000462816 83.4505V83.2883C-0.000124345 83.2401 0.00659237 83.1921 0.0203841 83.146H2.95735V83.3281C2.95923 83.4779 2.99263 83.6257 3.05539 83.7618C3.11816 83.8978 3.20887 84.0192 3.32163 84.1178C3.58426 84.3364 3.89727 84.4861 4.23232 84.5533C4.62392 84.6426 5.02451 84.6865 5.42617 84.6842C5.80708 84.6846 6.18753 84.6575 6.56453 84.6031C6.89459 84.5637 7.21213 84.453 7.49514 84.2786C7.6093 84.2136 7.70411 84.1193 7.76987 84.0056C7.83563 83.8918 7.86997 83.7626 7.86937 83.6312C7.87578 83.4767 7.83707 83.3236 7.75799 83.1907C7.6789 83.0578 7.56285 82.9508 7.42399 82.8827C7.03844 82.692 6.6256 82.5624 6.20025 82.4985C5.68135 82.4037 5.09794 82.2955 4.45003 82.1741C3.92838 82.0827 3.41279 81.9597 2.90613 81.8055C2.44233 81.6724 1.99722 81.4811 1.58136 81.2364C1.20223 81.0123 0.882938 80.6999 0.650751 80.3257C0.408483 79.905 0.289172 79.4248 0.306397 78.9397C0.291973 78.4146 0.425077 77.896 0.690593 77.4428C0.961035 77.0114 1.33721 76.6563 1.78342 76.4111C2.30433 76.1244 2.86786 75.9231 3.45254 75.8149C4.13609 75.6828 4.83101 75.6184 5.5272 75.6228C6.17956 75.6192 6.83051 75.6836 7.46953 75.8149C8.02125 75.924 8.55329 76.1159 9.04758 76.3841C9.46617 76.6104 9.8281 76.9286 10.1063 77.3147C10.3689 77.6896 10.5068 78.1377 10.5004 78.5954V78.8174C10.5019 78.8721 10.4951 78.9268 10.4805 78.9796H7.54494V78.8373C7.54858 78.719 7.52596 78.6014 7.47872 78.4929C7.43149 78.3844 7.3608 78.2877 7.27174 78.2098C7.05546 78.0307 6.80156 77.9028 6.52896 77.8355C6.17556 77.7432 5.8113 77.6992 5.44609 77.7046C5.24403 77.7046 5.01921 77.7188 4.75881 77.7444C4.50893 77.7701 4.2618 77.8177 4.0203 77.8867C3.81238 77.9398 3.61828 78.0368 3.45112 78.1713C3.38268 78.2276 3.32801 78.2988 3.29127 78.3794C3.25452 78.4601 3.23668 78.5481 3.2391 78.6366C3.24265 78.7582 3.28064 78.8762 3.34866 78.9769C3.41668 79.0777 3.51192 79.1571 3.62329 79.2058C3.94518 79.3708 4.29085 79.4846 4.64782 79.5431L6.03377 79.8063C6.60295 79.9268 7.16976 80.0515 7.7342 80.1805C8.27244 80.298 8.79702 80.4711 9.29944 80.6971C9.75076 80.896 10.1366 81.2187 10.4122 81.6277C10.6825 82.0299 10.8149 82.5682 10.8092 83.2427C10.8274 83.8178 10.6913 84.3872 10.415 84.8919C10.1457 85.3504 9.75789 85.7279 9.29232 85.9848C8.7563 86.2787 8.1748 86.4807 7.57198 86.5824C6.8498 86.7079 6.11789 86.7688 5.3849 86.7645V86.7645Z" fill="white"/>
<path d="M16.4015 86.7644C15.1341 86.7644 14.1527 86.4405 13.4574 85.7926C12.762 85.1446 12.4148 84.1263 12.4158 82.7375V75.8774H15.3712V82.2466C15.3621 82.5796 15.4103 82.9117 15.5135 83.2284C15.5969 83.4749 15.7442 83.6949 15.9404 83.8659C16.1375 84.0321 16.3688 84.1531 16.6177 84.2202C16.9115 84.2981 17.2146 84.3354 17.5185 84.3312C17.9804 84.337 18.4363 84.2254 18.8432 84.0068C19.2362 83.795 19.5672 83.4845 19.8037 83.106C20.0486 82.7154 20.1751 82.2622 20.168 81.8012V75.8774H23.142V86.5154H20.7116L20.4939 84.9018H20.3516C20.044 85.304 19.6753 85.6555 19.2587 85.9434C18.8475 86.2227 18.3926 86.4314 17.9126 86.561C17.4204 86.6966 16.912 86.765 16.4015 86.7644V86.7644Z" fill="white"/>
<path d="M25.319 90.225V75.8774H27.7266L27.9898 77.4156H28.1321C28.5079 76.8051 29.0623 76.3247 29.7202 76.0397C30.466 75.7447 31.2652 75.6085 32.0666 75.6399C32.868 75.6713 33.6541 75.8694 34.3746 76.2218C35.1136 76.6321 35.6993 77.2713 36.0437 78.0432C36.4346 78.8656 36.63 79.9177 36.63 81.1993C36.63 82.4543 36.4308 83.4931 36.0324 84.3155C35.6837 85.0834 35.1081 85.726 34.3832 86.1568C33.6287 86.5749 32.7766 86.7846 31.9143 86.7644C31.4541 86.7659 30.9954 86.7114 30.5483 86.6022C30.124 86.4998 29.718 86.3328 29.3445 86.107C28.9878 85.8917 28.6726 85.6141 28.4139 85.2874H28.2929V90.225H25.319ZM30.9652 84.3568C31.4848 84.3775 32.0008 84.2622 32.4622 84.0224C32.8591 83.794 33.1662 83.4371 33.333 83.0107C33.5336 82.4984 33.6303 81.9513 33.6176 81.4013V80.9972C33.6325 80.4373 33.5357 79.8801 33.333 79.358C33.1625 78.9378 32.8558 78.5871 32.4622 78.3619C31.9934 78.1214 31.4703 78.0062 30.9439 78.0275C30.4305 78.0102 29.9225 78.1364 29.4768 78.3918C29.0751 78.6391 28.7576 79.0022 28.5661 79.4334C28.3461 79.9407 28.2393 80.4899 28.2531 81.0427V81.3273C28.2489 81.7558 28.3103 82.1824 28.4352 82.5923C28.5406 82.9476 28.7162 83.2781 28.9518 83.5642C29.175 83.8282 29.4599 84.033 29.7813 84.1604C30.1595 84.302 30.5616 84.3687 30.9652 84.3568V84.3568Z" fill="white"/>
<path d="M44.0351 86.7644C42.7535 86.7644 41.6626 86.5656 40.7623 86.1681C39.8958 85.7985 39.1741 85.1553 38.7076 84.3368C38.2333 83.5143 37.9961 82.4708 37.9961 81.2063C37.9961 79.9418 38.2333 78.8983 38.7076 78.0758C39.1701 77.262 39.8834 76.6196 40.741 76.2445C41.6251 75.8461 42.6942 75.6469 43.9483 75.6469C45.1758 75.6469 46.2193 75.8423 47.0788 76.2331C47.9066 76.5983 48.5898 77.2279 49.0211 78.0232C49.4594 78.8257 49.6785 79.8341 49.6785 81.0484V81.8779H41.0597C41.0658 82.4168 41.1973 82.9469 41.4439 83.4261C41.6648 83.8301 42.0158 84.1476 42.44 84.3268C42.9582 84.5309 43.5125 84.6277 44.0692 84.6114C44.3828 84.6127 44.6954 84.5755 44.9999 84.5004C45.2866 84.4303 45.56 84.314 45.8095 84.1561C46.0478 84.0056 46.2542 83.8098 46.4171 83.5798C46.5799 83.3478 46.6714 83.0733 46.6804 82.7901H49.6643C49.6732 83.3763 49.53 83.9548 49.2488 84.4691C48.9722 84.9704 48.5824 85.4001 48.1104 85.7242C47.5736 86.0847 46.9779 86.3486 46.3502 86.504C45.5931 86.6908 44.8148 86.7783 44.0351 86.7644ZM41.101 80.0253H46.5651C46.5731 79.6833 46.5076 79.3437 46.373 79.0292C46.2517 78.7537 46.068 78.5101 45.8365 78.3177C45.5986 78.1243 45.3228 77.9827 45.0269 77.9022C44.6907 77.8111 44.3435 77.7671 43.9953 77.7713C43.4878 77.7582 42.9827 77.8442 42.5083 78.0246C42.1195 78.1757 41.7849 78.4399 41.5478 78.783C41.3032 79.1562 41.1501 79.5818 41.101 80.0253V80.0253Z" fill="white"/>
<path d="M51.5042 86.5153V75.8716H53.9331L54.1764 77.6119H54.3187C54.4558 77.244 54.654 76.902 54.905 76.6002C55.1603 76.2902 55.4816 76.0413 55.8456 75.8716C56.2424 75.6909 56.6746 75.601 57.1106 75.6084C57.3345 75.6064 57.5581 75.6269 57.7779 75.6696C57.9568 75.7036 58.1328 75.7512 58.3044 75.8119V78.4045H57.1305C56.7256 78.3948 56.3229 78.4669 55.9466 78.6165C55.6262 78.7511 55.342 78.9592 55.117 79.2241C54.8918 79.4931 54.7264 79.807 54.6318 80.1448C54.5256 80.5337 54.4743 80.9355 54.4795 81.3386V86.5196H51.5042V86.5153Z" fill="white"/>
<path d="M64.0118 86.7645C63.2709 86.7645 62.6638 86.6497 62.1904 86.4201C61.7362 86.2092 61.3684 85.8485 61.1488 85.3985C60.91 84.8683 60.7956 84.2906 60.8144 83.7094V78.1044H59.1752V75.8789H60.9354L61.5045 72.7826H63.7912V75.8789H66.1704V78.1044H63.7884V83.2854C63.7884 83.6895 63.8728 83.9964 64.0417 84.206C64.2105 84.4157 64.5307 84.5205 65.0022 84.5205H66.1704V86.4429C65.9575 86.5054 65.7414 86.5563 65.523 86.5952C65.2668 86.6421 65.0036 86.6834 64.7332 86.7161C64.4938 86.7458 64.253 86.762 64.0118 86.7645Z" fill="white"/>
<path d="M73.2553 86.7644C71.9737 86.7644 70.8828 86.5656 69.9826 86.1681C69.1166 85.7982 68.3954 85.155 67.9292 84.3368C67.4549 83.5143 67.2178 82.4708 67.2178 81.2063C67.2178 79.9418 67.4549 78.8983 67.9292 78.0758C68.3917 77.262 69.105 76.6196 69.9626 76.2445C70.8458 75.8461 71.9149 75.6469 73.17 75.6469C74.3975 75.6469 75.441 75.8423 76.3005 76.2331C77.1283 76.5983 77.8114 77.2279 78.2428 78.0232C78.6811 78.8257 78.9002 79.8341 78.9002 81.0484V81.8779H70.28C70.286 82.4168 70.4176 82.9469 70.6642 83.4261C70.885 83.8301 71.2361 84.1476 71.6602 84.3268C72.1785 84.5309 72.7328 84.6277 73.2895 84.6114C73.6031 84.6127 73.9156 84.5755 74.2201 84.5004C74.5069 84.4303 74.7803 84.314 75.0298 84.1561C75.268 84.0056 75.4745 83.8098 75.6374 83.5798C75.8001 83.3478 75.8916 83.0733 75.9006 82.7901H78.8746C78.8835 83.3763 78.7403 83.9548 78.4591 84.4691C78.1825 84.9704 77.7927 85.4001 77.3207 85.7242C76.7834 86.08 76.1883 86.3396 75.562 86.4912C74.8081 86.6815 74.0328 86.7733 73.2553 86.7644ZM70.3212 80.0253H75.7854C75.7933 79.6833 75.7278 79.3437 75.5933 79.0292C75.4719 78.7537 75.2883 78.5101 75.0568 78.3177C74.8189 78.1243 74.5431 77.9827 74.2471 77.9022C73.911 77.8111 73.5638 77.7671 73.2155 77.7713C72.7081 77.7582 72.203 77.8442 71.7285 78.0246C71.3397 78.1757 71.0052 78.4399 70.768 78.783C70.5235 79.1562 70.3704 79.5818 70.3212 80.0253V80.0253Z" fill="white"/>
<path d="M84.1437 86.7643C83.6682 86.7643 83.1939 86.7166 82.7279 86.622C82.2833 86.5383 81.8558 86.3811 81.4629 86.1567C81.0861 85.9354 80.7752 85.6176 80.5622 85.2361C80.3156 84.7656 80.1968 84.2386 80.2178 83.7078C80.2178 82.9129 80.4076 82.2687 80.787 81.7755C81.2111 81.2503 81.7817 80.863 82.4262 80.6627C83.2487 80.3914 84.1021 80.2251 84.9662 80.1675C85.9433 80.0869 87.0191 80.0466 88.1935 80.0466V79.4191C88.2057 79.1026 88.1251 78.7895 87.9615 78.5183C87.7812 78.2628 87.5269 78.0687 87.233 77.962C86.8081 77.8116 86.3586 77.743 85.9082 77.7599C85.4881 77.7518 85.0689 77.803 84.6631 77.9121C84.3746 77.9851 84.1052 78.1196 83.8734 78.3063C83.7886 78.3751 83.7201 78.4618 83.6729 78.5602C83.6256 78.6586 83.6008 78.7663 83.6002 78.8755V79.116H80.6846C80.6703 79.0349 80.6604 78.9737 80.6547 78.9139C80.6471 78.8468 80.6438 78.7793 80.6447 78.7118C80.638 78.1085 80.8625 77.5255 81.2722 77.0826C81.6906 76.6177 82.301 76.2601 83.1036 76.0097C84.0406 75.7422 85.0122 75.616 85.9865 75.6354C87.1068 75.6354 88.0478 75.7568 88.8096 75.9997C89.5713 76.2425 90.1548 76.622 90.5598 77.1381C90.9639 77.6503 91.1665 78.3044 91.1674 79.1003V83.769C91.1604 83.8699 91.1738 83.9712 91.2068 84.0667C91.2398 84.1623 91.2918 84.2503 91.3595 84.3254C91.4214 84.3882 91.4955 84.4377 91.5772 84.4707C91.659 84.5037 91.7466 84.5197 91.8348 84.5175H92.6886V86.42C92.4586 86.5129 92.2204 86.5839 91.9771 86.632C91.603 86.7114 91.2211 86.7486 90.8387 86.743C90.4191 86.7561 90.0008 86.6909 89.605 86.5509C89.3109 86.444 89.0496 86.2626 88.8466 86.0244C88.6618 85.7956 88.5275 85.5304 88.4524 85.246H88.2902C87.9834 85.5615 87.6326 85.8308 87.2486 86.0457C86.8121 86.2919 86.3418 86.4726 85.8527 86.5822C85.2918 86.7075 84.7185 86.7686 84.1437 86.7643V86.7643ZM85.0345 84.5787C85.419 84.5786 85.8018 84.5274 86.1729 84.4264C86.5235 84.3321 86.8588 84.1883 87.1689 83.9995C87.4576 83.8245 87.7059 83.5902 87.8975 83.3122C88.0828 83.0485 88.1822 82.7339 88.1821 82.4115V81.8253C87.2828 81.8164 86.3839 81.8673 85.4913 81.9775C84.7495 82.079 84.1803 82.2479 83.7837 82.4841C83.6028 82.5761 83.451 82.7167 83.3454 82.8901C83.2399 83.0635 83.1847 83.2629 83.1861 83.4659C83.1805 83.5847 83.1991 83.7034 83.241 83.8147C83.2828 83.9261 83.3469 84.0277 83.4294 84.1134C83.6162 84.289 83.8466 84.4114 84.0968 84.4677C84.4034 84.5441 84.7185 84.5814 85.0345 84.5787V84.5787Z" fill="white"/>
<path d="M93.8098 86.5154V75.8717H96.2388L96.4792 77.4754H96.6215C96.8942 77.0675 97.2407 76.7143 97.6432 76.4338C98.0334 76.1616 98.4662 75.9563 98.9239 75.8262C99.3871 75.6972 99.8659 75.6325 100.347 75.6341C101.066 75.6117 101.781 75.761 102.431 76.0695C103.012 76.3748 103.47 76.8715 103.726 77.4754H103.869C104.433 76.6633 105.269 76.0787 106.225 75.8262C106.703 75.6981 107.197 75.6335 107.692 75.6341C108.392 75.6145 109.087 75.7526 109.725 76.0382C110.291 76.3144 110.75 76.7696 111.03 77.3331C111.341 77.926 111.496 78.6816 111.496 79.5999V86.5154H108.507V80.1121C108.514 79.7833 108.47 79.4555 108.377 79.1402C108.305 78.8978 108.177 78.6759 108.002 78.4928C107.831 78.3254 107.617 78.2065 107.385 78.1484C107.124 78.0799 106.855 78.046 106.585 78.0474C106.157 78.0434 105.735 78.1513 105.361 78.3605C104.989 78.5707 104.681 78.8787 104.471 79.2512C104.245 79.6485 104.129 80.0991 104.136 80.5561V86.5154H101.175V80.1036C101.182 79.7739 101.134 79.4454 101.033 79.1317C100.954 78.888 100.819 78.6663 100.639 78.4843C100.467 78.3213 100.259 78.203 100.031 78.1399C99.7636 78.0688 99.4878 78.0348 99.2113 78.0389C98.7831 78.0349 98.3612 78.1428 97.9876 78.3519C97.6164 78.5606 97.3113 78.8692 97.1067 79.2427C96.8867 79.6419 96.7748 80.0917 96.7823 80.5475V86.5239H93.8083L93.8098 86.5154Z" fill="white"/>
<path d="M61.8332 95.8593L59.1947 89.6793H61.3993L62.3844 92.2475C62.4313 92.3647 62.486 92.525 62.5486 92.7283C62.6111 92.9315 62.6775 93.1387 62.7479 93.3498C62.8261 93.5609 62.8886 93.7524 62.9355 93.9244H63.0293C63.0841 93.7524 63.1427 93.5648 63.2052 93.3615C63.2756 93.1504 63.3421 92.9433 63.4046 92.74C63.475 92.5367 63.5336 92.3726 63.5805 92.2475L64.5538 89.6793H66.6412L64.0027 95.8593H61.8332Z" fill="white"/>
<path d="M67.4228 88.835V87.3691H69.4632V88.835H67.4228ZM67.4228 95.8593V89.6793H69.4632V95.8593H67.4228Z" fill="white"/>
<path d="M74.4208 96C73.6468 96 72.9784 95.8867 72.4155 95.6599C71.8604 95.4254 71.4305 95.0697 71.1256 94.5928C70.8285 94.1159 70.6799 93.5061 70.6799 92.7634C70.6799 92.0364 70.8285 91.4344 71.1256 90.9575C71.4226 90.4806 71.8448 90.1249 72.3921 89.8904C72.9393 89.6559 73.5882 89.5386 74.3387 89.5386C75.1048 89.5386 75.7576 89.6519 76.2971 89.8787C76.8365 90.1054 77.2469 90.4533 77.5284 90.9223C77.8098 91.3914 77.9505 91.9895 77.9505 92.7165V93.1739H72.779C72.7947 93.5022 72.8611 93.7759 72.9784 93.9948C73.1035 94.2137 73.2872 94.3778 73.5295 94.4873C73.7719 94.5967 74.0729 94.6514 74.4325 94.6514C74.6358 94.6514 74.8234 94.628 74.9954 94.5811C75.1674 94.5342 75.3198 94.4677 75.4527 94.3817C75.5856 94.2957 75.6873 94.1941 75.7576 94.0768C75.8358 93.9596 75.8788 93.8228 75.8866 93.6664H77.9271C77.9271 94.0338 77.845 94.3622 77.6808 94.6514C77.5166 94.9407 77.2782 95.187 76.9655 95.3902C76.6606 95.5857 76.2932 95.7381 75.8632 95.8476C75.4332 95.9492 74.9524 96 74.4208 96ZM72.7908 92.0716H75.8045C75.8045 91.8761 75.7694 91.708 75.699 91.5673C75.6365 91.4188 75.5426 91.2937 75.4176 91.1921C75.2925 91.0904 75.1439 91.0162 74.9719 90.9693C74.7999 90.9145 74.6123 90.8872 74.4091 90.8872C74.0807 90.8872 73.8032 90.9341 73.5765 91.0279C73.3497 91.1217 73.1699 91.2585 73.037 91.4383C72.9119 91.6103 72.8299 91.8214 72.7908 92.0716Z" fill="white"/>
<path d="M81.7992 96C81.3379 96 80.951 95.9414 80.6382 95.8241C80.3255 95.699 80.091 95.5075 79.9346 95.2495C79.7783 94.9837 79.7001 94.6358 79.7001 94.2058V91.11H78.6916V89.6793H79.7705L80.1809 87.8499H81.7406V89.6793H83.2064V91.11H81.7406V93.7719C81.7406 94.0299 81.7914 94.2293 81.893 94.37C82.0025 94.5029 82.2096 94.5694 82.5145 94.5694H83.2064V95.7889C83.1048 95.828 82.968 95.8632 82.796 95.8945C82.624 95.9258 82.4481 95.9492 82.2683 95.9648C82.0885 95.9883 81.9321 96 81.7992 96Z" fill="white"/>
<path d="M84.3716 95.8593V89.6793H86.0368L86.1775 90.6292H86.2713C86.4589 90.379 86.6739 90.1757 86.9163 90.0194C87.1664 89.8552 87.4362 89.734 87.7254 89.6559C88.0147 89.5777 88.3118 89.5386 88.6166 89.5386C89.1404 89.5386 89.5782 89.6285 89.93 89.8083C90.2897 89.9803 90.5594 90.2461 90.7392 90.6057C90.9268 90.9575 91.0206 91.4071 91.0206 91.9543V95.8593H88.9684V92.2357C88.9684 92.0481 88.9411 91.8839 88.8864 91.7432C88.8395 91.5947 88.7691 91.4735 88.6753 91.3797C88.5815 91.2859 88.4603 91.2155 88.3118 91.1686C88.171 91.1217 88.0108 91.0982 87.831 91.0982C87.5651 91.0982 87.3228 91.1569 87.1039 91.2741C86.8928 91.3914 86.7247 91.5517 86.5996 91.7549C86.4746 91.9504 86.412 92.1771 86.412 92.4351V95.8593H84.3716Z" fill="white"/>
<path d="M94.5431 96C94.2304 96 93.9294 95.9727 93.6402 95.9179C93.3509 95.8632 93.0929 95.7694 92.8662 95.6365C92.6395 95.5036 92.4636 95.3238 92.3385 95.0971C92.2134 94.8625 92.1509 94.5694 92.1509 94.2176C92.1509 93.7485 92.2642 93.3732 92.491 93.0918C92.7177 92.8025 93.0421 92.5875 93.4643 92.4468C93.8943 92.2983 94.3985 92.2006 94.977 92.1537C95.5634 92.0989 96.2162 92.0716 96.9354 92.0716V91.7901C96.9354 91.579 96.8885 91.411 96.7947 91.2859C96.7009 91.153 96.5601 91.0552 96.3725 90.9927C96.1849 90.9223 95.9504 90.8872 95.6689 90.8872C95.4422 90.8872 95.2311 90.9106 95.0357 90.9575C94.848 90.9966 94.6956 91.0592 94.5783 91.1452C94.4689 91.2311 94.4141 91.3406 94.4141 91.4735V91.5673H92.3737C92.3659 91.536 92.362 91.5087 92.362 91.4852C92.362 91.454 92.362 91.4188 92.362 91.3797C92.362 91.0122 92.491 90.6917 92.749 90.4181C93.0069 90.1367 93.3861 89.9217 93.8864 89.7731C94.3946 89.6168 95.0083 89.5386 95.7275 89.5386C96.3999 89.5386 96.9784 89.6089 97.4631 89.7497C97.9478 89.8826 98.3192 90.0976 98.5771 90.3946C98.843 90.6917 98.9759 91.0826 98.9759 91.5673V94.1237C98.9759 94.2566 99.0071 94.3661 99.0697 94.4521C99.14 94.5303 99.2378 94.5694 99.3628 94.5694H99.8788V95.7889C99.7772 95.828 99.6208 95.871 99.4097 95.9179C99.1987 95.9727 98.9602 96 98.6944 96C98.3661 96 98.0924 95.9609 97.8735 95.8828C97.6625 95.8124 97.4944 95.7147 97.3693 95.5896C97.252 95.4645 97.166 95.3199 97.1113 95.1557H97.0292C96.8416 95.3199 96.6266 95.4684 96.3842 95.6013C96.1419 95.7264 95.8683 95.8241 95.5634 95.8945C95.2585 95.9648 94.9184 96 94.5431 96ZM95.2116 94.6514C95.3914 94.6514 95.579 94.628 95.7745 94.5811C95.9777 94.5342 96.1653 94.4638 96.3373 94.37C96.5171 94.2762 96.6618 94.1628 96.7712 94.0299C96.8807 93.8892 96.9354 93.7289 96.9354 93.5491V93.1622C96.3256 93.1622 95.8175 93.1934 95.4109 93.256C95.0044 93.3185 94.6995 93.4162 94.4962 93.5491C94.293 93.6742 94.1913 93.8423 94.1913 94.0534C94.1913 94.2019 94.2382 94.3231 94.3321 94.4169C94.4259 94.5029 94.551 94.5655 94.7073 94.6045C94.8637 94.6358 95.0318 94.6514 95.2116 94.6514Z" fill="white"/>
<path d="M100.656 95.8593V89.6793H102.321L102.462 90.6292H102.556C102.736 90.379 102.943 90.1757 103.177 90.0194C103.412 89.8552 103.67 89.734 103.951 89.6559C104.233 89.5777 104.518 89.5386 104.807 89.5386C105.316 89.5386 105.738 89.6285 106.074 89.8083C106.418 89.9881 106.676 90.2617 106.848 90.6292H106.942C107.122 90.379 107.329 90.1757 107.563 90.0194C107.806 89.8552 108.067 89.734 108.349 89.6559C108.63 89.5777 108.92 89.5386 109.217 89.5386C109.717 89.5386 110.135 89.6285 110.471 89.8083C110.815 89.9803 111.073 90.2422 111.245 90.594C111.425 90.9458 111.515 91.3914 111.515 91.9308V95.8593H109.475V92.2357C109.475 92.0403 109.451 91.8722 109.404 91.7315C109.357 91.5908 109.287 91.4735 109.193 91.3797C109.107 91.2859 108.998 91.2155 108.865 91.1686C108.74 91.1217 108.595 91.0982 108.431 91.0982C108.181 91.0982 107.954 91.1569 107.751 91.2741C107.555 91.3914 107.399 91.5517 107.282 91.7549C107.165 91.9504 107.106 92.1771 107.106 92.4351V95.8593H105.065V92.2357C105.065 92.0403 105.042 91.8722 104.995 91.7315C104.948 91.5908 104.878 91.4735 104.784 91.3797C104.698 91.2859 104.589 91.2155 104.456 91.1686C104.331 91.1217 104.186 91.0982 104.022 91.0982C103.772 91.0982 103.545 91.1569 103.342 91.2741C103.146 91.3914 102.99 91.5517 102.873 91.7549C102.755 91.9504 102.697 92.1771 102.697 92.4351V95.8593H100.656Z" fill="white"/>
<path fill-rule="evenodd" clip-rule="evenodd" d="M94.696 9.17518H78.3335V30.989H79.1986C81.2342 30.9914 83.2503 30.5923 85.1314 29.8146C87.0126 29.0368 88.7218 27.8956 90.1613 26.4564C91.6008 25.0171 92.7423 23.3081 93.5204 21.4271C94.2986 19.5461 94.698 17.5301 94.696 15.4945V9.17518ZM78.332 0H55.0469L55.303 37.3965C55.303 47.8709 58.6811 59.6429 75.5616 59.6429H78.332V9.17518V0ZM33.3184 29.3455C24.8348 28.0463 17.2178 24.1517 17.2178 13.5038C17.2178 6.9255 19.0363 0 34.6176 0H50.1121V30.471H36.0021C44.5726 32.6354 50.1121 38.2617 50.1121 46.3127C50.1121 52.891 48.2936 59.8165 32.7123 59.8165H17.2178V29.3455H33.3184ZM38.7409 21.8169L38.7503 21.8234L38.7448 21.8285L38.7409 21.8169ZM33.7669 18.4063L38.7409 21.8169L36.8593 16.2135L41.7816 12.7093L35.658 12.7042L33.728 7.11478L31.8258 12.7195L25.7022 12.7708L30.6523 16.2392L28.8169 21.8542L33.7669 18.4063Z" fill="white"/>
</svg>
