<svg width="365" height="96" viewBox="0 0 365 96" fill="none" xmlns="http://www.w3.org/2000/svg">
<path fill-rule="evenodd" clip-rule="evenodd" d="M124.318 14.7253H98.0632V49.7345H99.4513C102.718 49.7384 105.952 49.0979 108.971 47.8496C111.989 46.6014 114.732 44.7699 117.042 42.46C119.351 40.1502 121.183 37.4073 122.431 34.3885C123.68 31.3697 124.321 28.1342 124.318 24.8672V14.7253ZM98.0609 0H60.6987L61.1097 60.018C61.1097 76.8283 66.53 95.7214 93.6155 95.7214H98.0609V14.7253V0ZM25.8343 47.0968C12.2219 45.0118 0 38.7613 0 21.6723C0 11.1148 2.91792 0 27.9189 0H52.7806V48.9032H30.1404C43.8921 52.3767 52.7806 61.4065 52.7806 74.3277C52.7806 84.8852 49.8627 96 24.8617 96H0V47.0968H25.8343ZM34.535 35.0141L34.5501 35.0245L34.5412 35.0327L34.535 35.0141ZM26.554 29.5402L34.535 35.0141L31.5159 26.0211L39.4139 20.3971L29.5882 20.3889L26.4915 11.4185L23.4394 20.4136L13.6138 20.4958L21.5564 26.0622L18.6114 35.0738L26.554 29.5402Z" fill="white"/>
<path d="M160.373 52.5933C158.989 52.6039 157.609 52.4598 156.258 52.1637C155.106 51.9165 153.997 51.5008 152.965 50.9299C152.084 50.4513 151.331 49.7663 150.77 48.9331C150.244 48.1132 149.973 47.1544 149.991 46.179V45.8651C149.99 45.7718 150.003 45.679 150.03 45.5896H155.692V45.9422C155.696 46.2322 155.76 46.5181 155.881 46.7815C156.002 47.0449 156.177 47.2797 156.395 47.4707C156.901 47.8938 157.505 48.1835 158.151 48.3135C158.906 48.4864 159.678 48.5714 160.452 48.5668C161.187 48.5677 161.92 48.5152 162.647 48.4099C163.284 48.3336 163.896 48.1193 164.442 47.7819C164.662 47.656 164.844 47.4736 164.971 47.2534C165.098 47.0332 165.164 46.7831 165.163 46.5288C165.175 46.2297 165.101 45.9335 164.948 45.6763C164.796 45.419 164.572 45.2119 164.304 45.0801C163.561 44.7111 162.765 44.4602 161.945 44.3365C160.944 44.1529 159.82 43.9436 158.57 43.7086C157.565 43.5318 156.57 43.2936 155.594 42.9953C154.699 42.7375 153.841 42.3673 153.039 41.8936C152.308 41.46 151.693 40.8553 151.245 40.131C150.778 39.3169 150.548 38.3874 150.581 37.4485C150.553 36.4322 150.81 35.4284 151.322 34.5512C151.843 33.7163 152.569 33.029 153.429 32.5544C154.433 31.9995 155.52 31.6099 156.647 31.4005C157.965 31.1447 159.305 31.0202 160.647 31.0287C161.905 31.0217 163.16 31.1463 164.392 31.4005C165.456 31.6115 166.482 31.9829 167.435 32.5021C168.242 32.9402 168.94 33.556 169.476 34.3033C169.982 35.0289 170.248 35.8961 170.236 36.782V37.2116C170.239 37.3176 170.226 37.4234 170.198 37.5256H164.538V37.2502C164.545 37.0213 164.501 36.7936 164.41 36.5836C164.319 36.3736 164.183 36.1865 164.011 36.0356C163.594 35.6891 163.104 35.4415 162.579 35.3113C161.897 35.1326 161.195 35.0474 160.491 35.0579C160.101 35.0579 159.668 35.0855 159.166 35.135C158.684 35.1846 158.207 35.2768 157.742 35.4104C157.341 35.5131 156.967 35.7009 156.644 35.9613C156.512 36.0702 156.407 36.208 156.336 36.3641C156.265 36.5202 156.231 36.6904 156.236 36.8619C156.242 37.0971 156.316 37.3255 156.447 37.5205C156.578 37.7156 156.762 37.8692 156.976 37.9635C157.597 38.2829 158.263 38.5031 158.952 38.6162L161.624 39.1257C162.721 39.3589 163.814 39.6004 164.902 39.8501C165.94 40.0774 166.952 40.4124 167.92 40.8498C168.791 41.2349 169.534 41.8594 170.066 42.651C170.587 43.4295 170.842 44.4715 170.831 45.7769C170.866 46.8899 170.604 47.9921 170.071 48.9689C169.552 49.8563 168.804 50.5869 167.907 51.0841C166.873 51.653 165.752 52.044 164.59 52.2408C163.197 52.4837 161.786 52.6017 160.373 52.5933V52.5933Z" fill="white"/>
<path d="M181.613 52.5931C179.17 52.5931 177.278 51.966 175.937 50.712C174.596 49.458 173.927 47.4869 173.929 44.7989V31.5214H179.627V43.8488C179.61 44.4933 179.702 45.1361 179.901 45.7491C180.062 46.2263 180.346 46.6521 180.724 46.9829C181.105 47.3047 181.55 47.5388 182.03 47.6687C182.597 47.8194 183.181 47.8917 183.767 47.8835C184.658 47.8948 185.537 47.6788 186.321 47.2556C187.079 46.8457 187.717 46.2449 188.173 45.5122C188.645 44.7561 188.889 43.879 188.876 42.9867V31.5214H194.61V52.1111H189.924L189.504 48.9879H189.23C188.637 49.7665 187.926 50.4468 187.122 51.0039C186.33 51.5446 185.452 51.9486 184.527 52.1992C183.578 52.4617 182.598 52.5942 181.613 52.5931V52.5931Z" fill="white"/>
<path d="M198.807 59.2911V31.5214H203.449L203.957 34.4986H204.231C204.956 33.3168 206.025 32.3871 207.293 31.8353C208.731 31.2645 210.272 31.0009 211.817 31.0616C213.362 31.1223 214.878 31.5059 216.267 32.1879C217.692 32.982 218.821 34.2191 219.485 35.7131C220.239 37.305 220.616 39.3412 220.616 41.8217C220.616 44.2509 220.232 46.2614 219.463 47.8532C218.791 49.3394 217.681 50.5832 216.284 51.4171C214.829 52.2262 213.186 52.6321 211.524 52.5931C210.636 52.5959 209.752 52.4904 208.89 52.2791C208.072 52.0809 207.289 51.7577 206.569 51.3207C205.881 50.9039 205.273 50.3666 204.774 49.7343H204.541V59.2911H198.807ZM209.694 47.9331C210.695 47.9731 211.69 47.75 212.58 47.2859C213.345 46.8438 213.937 46.1531 214.259 45.3277C214.646 44.3362 214.832 43.2774 214.808 42.2128V41.4306C214.836 40.347 214.65 39.2685 214.259 38.2579C213.93 37.4447 213.339 36.7658 212.58 36.33C211.676 35.8646 210.668 35.6417 209.653 35.6828C208.663 35.6494 207.683 35.8935 206.824 36.3879C206.049 36.8665 205.437 37.5693 205.068 38.4039C204.644 39.3858 204.438 40.4488 204.464 41.5188V42.0696C204.456 42.8989 204.575 43.7246 204.816 44.518C205.019 45.2057 205.357 45.8453 205.812 46.3991C206.242 46.9101 206.791 47.3065 207.411 47.553C208.14 47.827 208.915 47.9561 209.694 47.9331V47.9331Z" fill="white"/>
<path d="M234.893 52.5932C232.422 52.5932 230.319 52.2085 228.583 51.4392C226.912 50.7237 225.521 49.4788 224.622 47.8947C223.707 46.3028 223.25 44.2831 223.25 41.8356C223.25 39.3881 223.707 37.3685 224.622 35.7766C225.513 34.2014 226.889 32.9581 228.542 32.232C230.247 31.4609 232.308 31.0753 234.726 31.0753C237.093 31.0753 239.105 31.4535 240.762 32.21C242.358 32.9167 243.675 34.1354 244.507 35.6747C245.352 37.228 245.774 39.1798 245.774 41.5299V43.1356H229.157C229.168 44.1786 229.422 45.2045 229.897 46.132C230.323 46.914 231 47.5284 231.818 47.8754C232.817 48.2704 233.886 48.4578 234.959 48.4262C235.564 48.4287 236.166 48.3566 236.754 48.2114C237.306 48.0755 237.834 47.8504 238.315 47.5449C238.774 47.2535 239.172 46.8746 239.486 46.4295C239.8 45.9804 239.976 45.4492 239.994 44.901H245.747C245.764 46.0355 245.488 47.1552 244.946 48.1508C244.412 49.1209 243.661 49.9527 242.751 50.5799C241.716 51.2776 240.567 51.7884 239.357 52.0892C237.897 52.4507 236.397 52.6201 234.893 52.5932ZM229.236 39.5497H239.771C239.787 38.8879 239.66 38.2305 239.401 37.6218C239.167 37.0886 238.813 36.6172 238.367 36.2448C237.908 35.8704 237.376 35.5964 236.806 35.4406C236.157 35.2643 235.488 35.179 234.817 35.1872C233.838 35.1618 232.864 35.3283 231.95 35.6774C231.2 35.9699 230.555 36.4812 230.098 37.1454C229.626 37.8676 229.331 38.6914 229.236 39.5497V39.5497Z" fill="white"/>
<path d="M249.294 52.1112V31.5105H253.977L254.447 34.8787H254.721C254.985 34.1667 255.367 33.5047 255.851 32.9206C256.343 32.3207 256.963 31.8389 257.665 31.5105C258.43 31.1606 259.263 30.9866 260.104 31.0009C260.536 30.997 260.967 31.0367 261.391 31.1194C261.735 31.1853 262.075 31.2774 262.406 31.3948V36.4128H260.142C259.362 36.394 258.585 36.5336 257.86 36.8231C257.242 37.0836 256.694 37.4865 256.26 37.9991C255.826 38.5198 255.507 39.1272 255.325 39.7811C255.12 40.5337 255.021 41.3115 255.031 42.0918V52.1195H249.294V52.1112Z" fill="white"/>
<path d="M273.41 52.5933C271.981 52.5933 270.811 52.3711 269.898 51.9268C269.022 51.5186 268.313 50.8203 267.89 49.9493C267.429 48.9232 267.209 47.805 267.245 46.6802V35.8317H264.084V31.5243H267.478L268.576 25.5314H272.984V31.5243H277.572V35.8317H272.979V45.8595C272.979 46.6416 273.142 47.2356 273.467 47.6414C273.793 48.0471 274.41 48.25 275.319 48.25H277.572V51.9708C277.161 52.0919 276.745 52.1902 276.323 52.2655C275.83 52.3564 275.322 52.4363 274.801 52.4996C274.339 52.5572 273.875 52.5884 273.41 52.5933Z" fill="white"/>
<path d="M291.232 52.5932C288.761 52.5932 286.658 52.2085 284.922 51.4392C283.252 50.7232 281.862 49.4784 280.963 47.8947C280.049 46.3028 279.591 44.2831 279.591 41.8356C279.591 39.3881 280.049 37.3685 280.963 35.7766C281.855 34.2014 283.23 32.9581 284.884 32.232C286.586 31.4609 288.648 31.0753 291.068 31.0753C293.434 31.0753 295.446 31.4535 297.103 32.21C298.699 32.9167 300.017 34.1354 300.848 35.6747C301.693 37.228 302.116 39.1798 302.116 41.5299V43.1356H285.495C285.507 44.1786 285.761 45.2045 286.236 46.132C286.662 46.914 287.339 47.5284 288.157 47.8754C289.156 48.2704 290.225 48.4578 291.298 48.4262C291.903 48.4287 292.505 48.3566 293.092 48.2114C293.645 48.0755 294.172 47.8504 294.653 47.5449C295.113 47.2535 295.511 46.8746 295.825 46.4295C296.139 45.9804 296.315 45.4492 296.332 44.901H302.067C302.084 46.0355 301.808 47.1552 301.265 48.1508C300.732 49.1209 299.981 49.9527 299.071 50.5799C298.035 51.2686 296.887 51.771 295.68 52.0644C294.226 52.4327 292.731 52.6105 291.232 52.5932ZM285.575 39.5497H296.11C296.126 38.8879 295.999 38.2305 295.74 37.6218C295.506 37.0886 295.152 36.6172 294.706 36.2448C294.247 35.8704 293.715 35.5964 293.144 35.4406C292.496 35.2643 291.827 35.179 291.155 35.1872C290.177 35.1618 289.203 35.3283 288.288 35.6774C287.539 35.9699 286.894 36.4812 286.436 37.1454C285.965 37.8676 285.67 38.6914 285.575 39.5497V39.5497Z" fill="white"/>
<path d="M312.226 52.5931C311.309 52.593 310.395 52.5007 309.496 52.3177C308.639 52.1557 307.815 51.8513 307.057 51.4171C306.331 50.9888 305.731 50.3737 305.32 49.6352C304.845 48.7246 304.616 47.7046 304.657 46.6773C304.657 45.1386 305.022 43.8919 305.754 42.9372C306.572 41.9208 307.672 41.1712 308.915 40.7835C310.5 40.2584 312.146 39.9364 313.812 39.825C315.696 39.669 317.77 39.5909 320.034 39.5909V38.3764C320.058 37.7639 319.902 37.1579 319.587 36.633C319.239 36.1385 318.749 35.7627 318.182 35.5562C317.363 35.2651 316.496 35.1324 315.628 35.1651C314.818 35.1494 314.01 35.2486 313.227 35.4598C312.671 35.601 312.152 35.8612 311.705 36.2227C311.541 36.3558 311.409 36.5236 311.318 36.7141C311.227 36.9046 311.179 37.113 311.178 37.3243V37.7898H305.556C305.529 37.6328 305.51 37.5143 305.499 37.3987C305.484 37.2689 305.478 37.1382 305.48 37.0076C305.467 35.8398 305.9 34.7114 306.69 33.8541C307.496 32.9545 308.673 32.2623 310.22 31.7775C312.027 31.2598 313.901 31.0156 315.779 31.0532C317.939 31.0532 319.753 31.2882 321.222 31.7582C322.691 32.2283 323.816 32.9627 324.597 33.9615C325.376 34.953 325.766 36.219 325.768 37.7595V46.7957C325.755 46.991 325.781 47.187 325.844 47.372C325.908 47.557 326.008 47.7272 326.139 47.8725C326.258 47.9941 326.401 48.0899 326.558 48.1538C326.716 48.2178 326.885 48.2486 327.055 48.2444H328.701V51.9266C328.258 52.1066 327.798 52.244 327.329 52.337C326.608 52.4906 325.872 52.5626 325.134 52.5518C324.325 52.5772 323.519 52.4511 322.756 52.18C322.189 51.9731 321.685 51.622 321.293 51.161C320.937 50.7182 320.678 50.2048 320.534 49.6545H320.221C319.629 50.265 318.953 50.7863 318.212 51.2023C317.371 51.6787 316.464 52.0285 315.521 52.2406C314.44 52.4832 313.334 52.6015 312.226 52.5931V52.5931ZM313.943 48.3628C314.685 48.3626 315.423 48.2635 316.138 48.0681C316.814 47.8855 317.461 47.6073 318.059 47.2419C318.615 46.9031 319.094 46.4497 319.464 45.9116C319.821 45.4011 320.013 44.7922 320.012 44.1683V43.0336C318.278 43.0165 316.545 43.1149 314.824 43.3283C313.394 43.5247 312.296 43.8515 311.532 44.3087C311.183 44.4868 310.89 44.7589 310.687 45.0945C310.483 45.4302 310.377 45.8161 310.38 46.2091C310.369 46.439 310.405 46.6687 310.485 46.8842C310.566 47.0997 310.69 47.2964 310.849 47.4622C311.209 47.8022 311.653 48.039 312.135 48.148C312.727 48.2959 313.334 48.3681 313.943 48.3628V48.3628Z" fill="white"/>
<path d="M330.863 52.1112V31.5104H335.546L336.01 34.6143H336.284C336.81 33.8249 337.478 33.1412 338.254 32.5983C339.006 32.0716 339.841 31.6742 340.723 31.4223C341.616 31.1726 342.54 31.0475 343.467 31.0505C344.854 31.0072 346.232 31.2961 347.486 31.8933C348.606 32.4842 349.488 33.4455 349.983 34.6143H350.257C351.346 33.0425 352.956 31.911 354.8 31.4223C355.723 31.1744 356.674 31.0494 357.629 31.0505C358.978 31.0126 360.318 31.2799 361.55 31.8327C362.64 32.3672 363.524 33.2482 364.065 34.3389C364.663 35.4864 364.963 36.9489 364.963 38.7262V52.1112H359.201V39.7177C359.214 39.0814 359.129 38.4469 358.949 37.8366C358.81 37.3674 358.563 36.9379 358.227 36.5835C357.896 36.2594 357.485 36.0294 357.036 35.917C356.533 35.7845 356.015 35.7187 355.494 35.7215C354.669 35.7137 353.856 35.9226 353.135 36.3274C352.417 36.7343 351.823 37.3304 351.418 38.0515C350.982 38.8205 350.759 39.6925 350.773 40.577V52.1112H345.063V39.7012C345.078 39.0631 344.985 38.4272 344.789 37.8201C344.637 37.3485 344.377 36.9193 344.029 36.567C343.699 36.2516 343.297 36.0227 342.858 35.9005C342.342 35.7629 341.811 35.6971 341.277 35.7049C340.452 35.6972 339.638 35.9061 338.918 36.3109C338.202 36.7148 337.614 37.3121 337.22 38.0349C336.795 38.8076 336.58 39.6783 336.594 40.5604V52.1277H330.86L330.863 52.1112Z" fill="white"/>
<path d="M269.21 70.1961L264.122 58.2347H268.373L270.272 63.2054C270.363 63.4324 270.468 63.7426 270.589 64.136C270.709 64.5294 270.838 64.9304 270.973 65.3389C271.124 65.7475 271.245 66.1182 271.335 66.4511H271.516C271.621 66.1182 271.734 65.755 271.855 65.3616C271.991 64.9531 272.119 64.5521 272.239 64.1587C272.375 63.7653 272.488 63.4475 272.579 63.2054L274.455 58.2347H278.48L273.393 70.1961H269.21Z" fill="white"/>
<path d="M279.987 56.6006V53.7634H283.921V56.6006H279.987ZM279.987 70.1961V58.2347H283.921V70.1961H279.987Z" fill="white"/>
<path d="M293.479 70.4685C291.987 70.4685 290.698 70.249 289.613 69.8102C288.543 69.3563 287.714 68.6678 287.126 67.7448C286.553 66.8218 286.267 65.6415 286.267 64.2041C286.267 62.7969 286.553 61.6317 287.126 60.7087C287.699 59.7857 288.513 59.0972 289.568 58.6433C290.623 58.1894 291.874 57.9624 293.321 57.9624C294.798 57.9624 296.057 58.1818 297.097 58.6206C298.137 59.0594 298.928 59.7327 299.471 60.6406C300.014 61.5485 300.285 62.7061 300.285 64.1133V64.9985H290.314C290.344 65.634 290.472 66.1636 290.698 66.5873C290.94 67.0109 291.294 67.3287 291.761 67.5405C292.228 67.7524 292.809 67.8583 293.502 67.8583C293.894 67.8583 294.256 67.8129 294.587 67.7221C294.919 67.6313 295.213 67.5027 295.469 67.3363C295.725 67.1698 295.921 66.9731 296.057 66.7461C296.208 66.5192 296.291 66.2544 296.306 65.9517H300.24C300.24 66.6629 300.082 67.2984 299.765 67.8583C299.449 68.4182 298.989 68.8948 298.386 69.2882C297.798 69.6665 297.09 69.9615 296.261 70.1734C295.431 70.3701 294.504 70.4685 293.479 70.4685ZM290.337 62.8649H296.147C296.147 62.4867 296.08 62.1613 295.944 61.889C295.823 61.6015 295.643 61.3594 295.401 61.1627C295.16 60.966 294.874 60.8222 294.542 60.7314C294.211 60.6255 293.849 60.5725 293.457 60.5725C292.824 60.5725 292.289 60.6633 291.852 60.8449C291.414 61.0265 291.068 61.2913 290.811 61.6393C290.57 61.9722 290.412 62.3807 290.337 62.8649Z" fill="white"/>
<path d="M307.706 70.4685C306.816 70.4685 306.07 70.355 305.467 70.128C304.864 69.8859 304.412 69.5152 304.111 69.0158C303.809 68.5014 303.658 67.828 303.658 66.9958V61.0038H301.714V58.2347H303.794L304.585 54.694H307.593V58.2347H310.419V61.0038H307.593V66.156C307.593 66.6553 307.691 67.0412 307.886 67.3136C308.098 67.5708 308.497 67.6994 309.085 67.6994H310.419V70.0599C310.223 70.1356 309.959 70.2037 309.627 70.2642C309.296 70.3247 308.957 70.3701 308.61 70.4004C308.263 70.4458 307.962 70.4685 307.706 70.4685Z" fill="white"/>
<path d="M312.665 70.1961V58.2347H315.876L316.147 60.0732H316.328C316.69 59.589 317.104 59.1956 317.572 58.893C318.054 58.5752 318.574 58.3407 319.132 58.1894C319.69 58.038 320.262 57.9624 320.85 57.9624C321.86 57.9624 322.704 58.1364 323.383 58.4844C324.076 58.8173 324.596 59.3318 324.943 60.0278C325.304 60.7087 325.485 61.5788 325.485 62.638V70.1961H321.528V63.1827C321.528 62.8195 321.476 62.5018 321.37 62.2294C321.28 61.9419 321.144 61.7074 320.963 61.5258C320.782 61.3442 320.549 61.2081 320.262 61.1173C319.991 61.0265 319.682 60.9811 319.335 60.9811C318.823 60.9811 318.356 61.0946 317.933 61.3215C317.526 61.5485 317.202 61.8587 316.961 62.2521C316.72 62.6304 316.599 63.0692 316.599 63.5685V70.1961H312.665Z" fill="white"/>
<path d="M332.277 70.4685C331.674 70.4685 331.094 70.4155 330.536 70.3096C329.978 70.2037 329.481 70.0221 329.044 69.7648C328.607 69.5076 328.267 69.1596 328.026 68.7208C327.785 68.2668 327.664 67.6994 327.664 67.0185C327.664 66.1106 327.883 65.3843 328.32 64.8396C328.757 64.2797 329.383 63.8636 330.197 63.5912C331.026 63.3038 331.998 63.1146 333.113 63.0238C334.244 62.9179 335.503 62.8649 336.889 62.8649V62.3202C336.889 61.9117 336.799 61.5863 336.618 61.3442C336.437 61.087 336.166 60.8979 335.804 60.7768C335.442 60.6406 334.99 60.5725 334.447 60.5725C334.01 60.5725 333.603 60.6179 333.227 60.7087C332.865 60.7844 332.571 60.9054 332.345 61.0719C332.134 61.2383 332.028 61.4502 332.028 61.7074V61.889H328.094C328.079 61.8284 328.071 61.7755 328.071 61.7301C328.071 61.6696 328.071 61.6015 328.071 61.5258C328.071 60.8146 328.32 60.1943 328.818 59.6647C329.315 59.1199 330.046 58.7038 331.011 58.4163C331.991 58.1137 333.174 57.9624 334.561 57.9624C335.857 57.9624 336.972 58.0986 337.907 58.3709C338.841 58.6282 339.557 59.0443 340.055 59.6193C340.567 60.1943 340.824 60.9508 340.824 61.889V66.8369C340.824 67.0942 340.884 67.306 341.004 67.4724C341.14 67.6238 341.328 67.6994 341.57 67.6994H342.564V70.0599C342.369 70.1356 342.067 70.2188 341.66 70.3096C341.253 70.4155 340.793 70.4685 340.281 70.4685C339.648 70.4685 339.12 70.3928 338.698 70.2415C338.291 70.1053 337.967 69.9162 337.726 69.6741C337.5 69.432 337.334 69.152 337.229 68.8343H337.07C336.708 69.152 336.294 69.4395 335.827 69.6968C335.359 69.9389 334.832 70.128 334.244 70.2642C333.656 70.4004 333 70.4685 332.277 70.4685ZM333.566 67.8583C333.912 67.8583 334.274 67.8129 334.651 67.7221C335.043 67.6313 335.405 67.4951 335.736 67.3136C336.083 67.132 336.362 66.9126 336.573 66.6553C336.784 66.383 336.889 66.0728 336.889 65.7248V64.9758C335.714 64.9758 334.734 65.0363 333.95 65.1573C333.166 65.2784 332.578 65.4675 332.186 65.7248C331.795 65.9669 331.599 66.2922 331.599 66.7007C331.599 66.9882 331.689 67.2228 331.87 67.4043C332.051 67.5708 332.292 67.6918 332.593 67.7675C332.895 67.828 333.219 67.8583 333.566 67.8583Z" fill="white"/>
<path d="M344.063 70.1961V58.2347H347.274L347.545 60.0732H347.726C348.073 59.589 348.472 59.1956 348.924 58.893C349.377 58.5752 349.874 58.3407 350.417 58.1894C350.959 58.038 351.51 57.9624 352.067 57.9624C353.047 57.9624 353.861 58.1364 354.509 58.4844C355.172 58.8324 355.67 59.362 356.001 60.0732H356.182C356.529 59.589 356.928 59.1956 357.381 58.893C357.848 58.5752 358.353 58.3407 358.895 58.1894C359.438 58.038 359.996 57.9624 360.569 57.9624C361.533 57.9624 362.34 58.1364 362.988 58.4844C363.651 58.8173 364.149 59.3242 364.48 60.0051C364.827 60.686 365 61.5485 365 62.5926V70.1961H361.066V63.1827C361.066 62.8044 361.021 62.4791 360.93 62.2067C360.84 61.9344 360.704 61.7074 360.523 61.5258C360.358 61.3442 360.147 61.2081 359.89 61.1173C359.649 61.0265 359.37 60.9811 359.054 60.9811C358.571 60.9811 358.134 61.0946 357.742 61.3215C357.366 61.5485 357.064 61.8587 356.838 62.2521C356.612 62.6304 356.499 63.0692 356.499 63.5685V70.1961H352.565V63.1827C352.565 62.8044 352.519 62.4791 352.429 62.2067C352.339 61.9344 352.203 61.7074 352.022 61.5258C351.856 61.3442 351.645 61.2081 351.389 61.1173C351.148 61.0265 350.869 60.9811 350.552 60.9811C350.07 60.9811 349.633 61.0946 349.241 61.3215C348.864 61.5485 348.563 61.8587 348.337 62.2521C348.11 62.6304 347.997 63.0692 347.997 63.5685V70.1961H344.063Z" fill="white"/>
</svg>
