<svg width="447" height="96" viewBox="0 0 447 96" fill="none" xmlns="http://www.w3.org/2000/svg">
<path fill-rule="evenodd" clip-rule="evenodd" d="M124.318 14.7253H98.0632V49.7345H99.4513C102.718 49.7384 105.952 49.0979 108.971 47.8496C111.989 46.6014 114.732 44.7699 117.042 42.46C119.351 40.1502 121.183 37.4073 122.431 34.3885C123.68 31.3697 124.321 28.1342 124.318 24.8672V14.7253ZM98.0609 0H60.6987L61.1097 60.018C61.1097 76.8283 66.53 95.7214 93.6155 95.7214H98.0609V14.7253V0ZM25.8343 47.0968C12.2219 45.0118 0 38.7613 0 21.6723C0 11.1148 2.91792 0 27.9189 0H52.7806V48.9032H30.1404C43.8921 52.3767 52.7806 61.4065 52.7806 74.3277C52.7806 84.8852 49.8627 96 24.8617 96H0V47.0968H25.8343ZM34.535 35.0141L34.5501 35.0245L34.5412 35.0327L34.535 35.0141ZM26.554 29.5402L34.535 35.0141L31.5159 26.0211L39.4139 20.3971L29.5882 20.3889L26.4915 11.4185L23.4394 20.4136L13.6138 20.4958L21.5564 26.0622L18.6114 35.0738L26.554 29.5402Z" fill="#F4A60B"/>
<path d="M155.105 54.5421C153.134 54.5571 151.168 54.3519 149.243 53.9302C147.603 53.5781 146.023 52.986 144.555 52.1729C143.3 51.4913 142.227 50.5158 141.429 49.3292C140.679 48.1614 140.292 46.7958 140.319 45.4067V44.9596C140.317 44.8268 140.336 44.6945 140.374 44.5673H148.438V45.0694C148.444 45.4824 148.535 45.8897 148.708 46.2648C148.88 46.6399 149.129 46.9743 149.439 47.2464C150.16 47.849 151.019 48.2615 151.94 48.4466C153.015 48.6929 154.115 48.8139 155.218 48.8075C156.264 48.8087 157.309 48.734 158.344 48.5839C159.25 48.4753 160.122 48.1702 160.899 47.6896C161.213 47.5102 161.473 47.2504 161.654 46.9368C161.834 46.6232 161.929 46.2671 161.927 45.9049C161.944 45.4789 161.838 45.057 161.621 44.6907C161.404 44.3243 161.085 44.0293 160.704 43.8417C159.645 43.316 158.511 42.9588 157.343 42.7826C155.919 42.5211 154.317 42.223 152.537 41.8883C151.105 41.6365 149.689 41.2972 148.298 40.8724C147.024 40.5052 145.802 39.9781 144.66 39.3034C143.619 38.6858 142.742 37.8245 142.105 36.793C141.439 35.6335 141.112 34.3098 141.159 32.9726C141.119 31.5251 141.485 30.0956 142.214 28.8462C142.957 27.6571 143.99 26.6782 145.215 26.0024C146.645 25.212 148.193 24.6572 149.798 24.3589C151.675 23.9946 153.584 23.8173 155.495 23.8294C157.287 23.8194 159.074 23.9969 160.829 24.3589C162.344 24.6594 163.805 25.1884 165.162 25.9279C166.312 26.5518 167.306 27.4288 168.069 28.4932C168.791 29.5265 169.169 30.7617 169.152 32.0234V32.6353C169.156 32.7862 169.137 32.9369 169.097 33.0824H161.036V32.6902C161.046 32.3641 160.984 32.0399 160.854 31.7408C160.724 31.4417 160.53 31.1752 160.286 30.9604C159.692 30.4668 158.995 30.1142 158.246 29.9288C157.276 29.6743 156.275 29.5529 155.273 29.5679C154.718 29.5679 154.1 29.6071 153.385 29.6777C152.699 29.7483 152.02 29.8796 151.357 30.07C150.786 30.2161 150.253 30.4836 149.794 30.8545C149.606 31.0096 149.456 31.2059 149.355 31.4281C149.255 31.6504 149.206 31.8929 149.212 32.1371C149.222 32.4721 149.326 32.7974 149.513 33.0752C149.7 33.3529 149.961 33.5717 150.267 33.7061C151.151 34.1609 152.1 34.4746 153.08 34.6357L156.886 35.3613C158.449 35.6934 160.006 36.0373 161.556 36.3929C163.034 36.7166 164.474 37.1938 165.854 37.8168C167.093 38.3652 168.153 39.2546 168.909 40.3821C169.652 41.4908 170.015 42.9748 170 44.834C170.049 46.4192 169.676 47.9889 168.917 49.3802C168.178 50.644 167.113 51.6845 165.834 52.3926C164.362 53.2029 162.766 53.7597 161.11 54.04C159.127 54.3859 157.117 54.554 155.105 54.5421V54.5421Z" fill="#F4A60B"/>
<path d="M185.356 54.5416C181.875 54.5416 179.181 53.6486 177.271 51.8626C175.362 50.0766 174.408 47.2694 174.411 43.4411V24.531H182.527V42.0879C182.502 43.0058 182.634 43.9213 182.917 44.7944C183.146 45.4739 183.551 46.0803 184.09 46.5516C184.631 47.0099 185.266 47.3433 185.95 47.5283C186.756 47.743 187.588 47.8459 188.423 47.8342C189.691 47.8504 190.943 47.5426 192.061 46.9399C193.14 46.3561 194.049 45.5004 194.698 44.457C195.371 43.3801 195.718 42.1309 195.699 40.8601V24.531H203.865V53.8552H197.191L196.593 49.4071H196.203C195.358 50.5159 194.346 51.4848 193.202 52.2784C192.073 53.0483 190.823 53.6237 189.505 53.9807C188.154 54.3545 186.758 54.5432 185.356 54.5416V54.5416Z" fill="#F4A60B"/>
<path d="M209.843 64.0811V24.5311H216.455L217.178 28.7713H217.568C218.6 27.0882 220.123 25.7641 221.929 24.9783C223.977 24.1652 226.172 23.7899 228.372 23.8764C230.573 23.9628 232.732 24.5091 234.71 25.4803C236.739 26.6114 238.348 28.3733 239.294 30.5011C240.367 32.7682 240.903 35.6682 240.903 39.2011C240.903 42.6606 240.356 45.524 239.262 47.7912C238.305 49.9078 236.724 51.6792 234.734 52.8668C232.662 54.0192 230.322 54.5973 227.954 54.5417C226.69 54.5457 225.431 54.3956 224.203 54.0946C223.038 53.8123 221.923 53.352 220.897 52.7296C219.918 52.1359 219.052 51.3707 218.342 50.4702H218.01V64.0811H209.843ZM225.348 47.905C226.775 47.962 228.192 47.6442 229.459 46.9832C230.548 46.3536 231.392 45.3699 231.85 44.1943C232.401 42.7822 232.666 41.2742 232.631 39.758V38.644C232.672 37.1007 232.406 35.5647 231.85 34.1254C231.382 32.9672 230.539 32.0003 229.459 31.3797C228.171 30.7168 226.735 30.3993 225.289 30.4579C223.88 30.4103 222.485 30.758 221.261 31.4621C220.158 32.1437 219.286 33.1447 218.76 34.3333C218.156 35.7318 217.863 37.2457 217.9 38.7696V39.5541C217.889 40.7352 218.058 41.9112 218.401 43.0411C218.69 44.0205 219.172 44.9315 219.819 45.7201C220.432 46.448 221.214 47.0125 222.097 47.3637C223.136 47.7538 224.24 47.9377 225.348 47.905V47.905Z" fill="#F4A60B"/>
<path d="M261.238 54.5418C257.719 54.5418 254.723 53.994 252.251 52.8983C249.871 51.8794 247.89 50.1063 246.608 47.8502C245.306 45.583 244.655 42.7065 244.655 39.2208C244.655 35.7351 245.306 32.8586 246.608 30.5914C247.878 28.3481 249.837 26.5772 252.192 25.5432C254.62 24.445 257.556 23.8958 260.999 23.8958C264.37 23.8958 267.236 24.4345 269.596 25.5119C271.869 26.5184 273.745 28.254 274.929 30.4463C276.133 32.6586 276.735 35.4383 276.735 38.7854V41.0722H253.067C253.084 42.5577 253.445 44.0188 254.122 45.3398C254.729 46.4535 255.693 47.3286 256.858 47.8227C258.281 48.3852 259.803 48.6521 261.332 48.6072C262.193 48.6108 263.051 48.508 263.887 48.3013C264.674 48.1078 265.425 47.7872 266.11 47.352C266.765 46.937 267.331 46.3973 267.779 45.7634C268.226 45.1239 268.477 44.3673 268.502 43.5865H276.696C276.72 45.2024 276.327 46.797 275.555 48.2149C274.795 49.5966 273.725 50.7813 272.429 51.6745C270.955 52.6683 269.319 53.3957 267.595 53.824C265.516 54.339 263.379 54.5803 261.238 54.5418ZM253.181 35.9652H268.185C268.207 35.0226 268.027 34.0863 267.658 33.2195C267.325 32.46 266.82 31.7887 266.185 31.2582C265.531 30.725 264.774 30.3348 263.961 30.1129C263.038 29.8618 262.085 29.7403 261.128 29.752C259.735 29.7158 258.348 29.953 257.045 30.4502C255.978 30.8667 255.059 31.5949 254.408 32.5409C253.736 33.5695 253.316 34.7427 253.181 35.9652V35.9652Z" fill="#F4A60B"/>
<path d="M281.748 53.8553V24.5155H288.418L289.086 29.3126H289.476C289.853 28.2986 290.397 27.3557 291.086 26.5238C291.787 25.6694 292.67 24.9832 293.669 24.5155C294.759 24.0172 295.945 23.7693 297.143 23.7898C297.758 23.7842 298.372 23.8407 298.975 23.9585C299.466 24.0523 299.95 24.1835 300.421 24.3507V31.4974H297.197C296.086 31.4707 294.98 31.6694 293.946 32.0819C293.067 32.4528 292.286 33.0266 291.668 33.7567C291.05 34.4983 290.596 35.3634 290.336 36.2946C290.044 37.3666 289.904 38.4743 289.918 39.5855V53.8671H281.748V53.8553Z" fill="#F4A60B"/>
<path d="M316.093 54.5419C314.059 54.5419 312.392 54.2255 311.092 53.5927C309.845 53.0113 308.835 52.0169 308.231 50.7764C307.576 49.315 307.262 47.7224 307.313 46.1204V30.6699H302.812V24.5352H307.645L309.208 16H315.488V24.5352H322.021V30.6699H315.48V44.9515C315.48 46.0655 315.712 46.9115 316.175 47.4894C316.639 48.0673 317.518 48.3562 318.813 48.3562H322.021V53.6554C321.436 53.8278 320.843 53.9679 320.243 54.0751C319.54 54.2046 318.817 54.3183 318.074 54.4085C317.417 54.4905 316.756 54.535 316.093 54.5419Z" fill="#F4A60B"/>
<path d="M341.476 54.5419C337.957 54.5419 334.961 53.994 332.489 52.8983C330.111 51.8787 328.131 50.1057 326.851 47.8502C325.548 45.583 324.897 42.7065 324.897 39.2208C324.897 35.7351 325.548 32.8586 326.851 30.5914C328.121 28.3481 330.08 26.5772 332.435 25.5432C334.86 24.445 337.796 23.8958 341.242 23.8958C344.613 23.8958 347.478 24.4345 349.838 25.5119C352.111 26.5184 353.987 28.254 355.172 30.4463C356.375 32.6586 356.977 35.4383 356.977 38.7854V41.0722H333.306C333.323 42.5577 333.684 44.0188 334.361 45.3398C334.968 46.4535 335.931 47.3286 337.096 47.8227C338.519 48.3852 340.041 48.6521 341.57 48.6072C342.431 48.6108 343.289 48.5081 344.126 48.3013C344.913 48.1078 345.664 47.7872 346.349 47.352C347.003 46.9371 347.57 46.3973 348.017 45.7634C348.464 45.1239 348.716 44.3673 348.74 43.5865H356.907C356.931 45.2024 356.538 46.797 355.766 48.215C355.006 49.5966 353.936 50.7813 352.64 51.6745C351.164 52.6554 349.53 53.3709 347.81 53.7887C345.74 54.3133 343.611 54.5665 341.476 54.5419ZM333.419 35.9652H348.424C348.446 35.0226 348.266 34.0863 347.896 33.2195C347.563 32.46 347.059 31.7887 346.423 31.2582C345.77 30.725 345.012 30.3348 344.2 30.1129C343.277 29.8618 342.323 29.7403 341.367 29.752C339.974 29.7158 338.587 29.953 337.284 30.4502C336.216 30.8667 335.297 31.5949 334.646 32.5409C333.975 33.5695 333.554 34.7427 333.419 35.9652V35.9652Z" fill="#F4A60B"/>
<path d="M371.376 54.5416C370.07 54.5415 368.768 54.4101 367.488 54.1494C366.267 53.9186 365.093 53.4851 364.014 52.8667C362.98 52.2567 362.126 51.3807 361.541 50.3289C360.864 49.032 360.538 47.5793 360.595 46.1162C360.595 43.9249 361.116 42.1493 362.158 40.7895C363.323 39.342 364.89 38.2744 366.66 37.7222C368.918 36.9744 371.262 36.5157 373.635 36.3572C376.318 36.1349 379.272 36.0237 382.497 36.0237V34.294C382.53 33.4217 382.309 32.5585 381.86 31.811C381.364 31.1067 380.666 30.5715 379.859 30.2774C378.692 29.8629 377.458 29.6739 376.221 29.7204C375.068 29.698 373.917 29.8393 372.802 30.1401C372.01 30.3412 371.27 30.7119 370.634 31.2266C370.401 31.4162 370.213 31.6553 370.083 31.9266C369.953 32.1979 369.885 32.4947 369.883 32.7956V33.4585H361.877C361.838 33.2349 361.811 33.0662 361.795 32.9015C361.774 32.7166 361.765 32.5305 361.768 32.3445C361.749 30.6814 362.366 29.0743 363.491 27.8533C364.64 26.572 366.316 25.5861 368.52 24.8958C371.093 24.1584 373.761 23.8107 376.436 23.8642C379.513 23.8642 382.097 24.1989 384.188 24.8683C386.28 25.5378 387.882 26.5837 388.995 28.0063C390.104 29.4184 390.66 31.2214 390.663 33.4153V46.2849C390.644 46.563 390.681 46.8421 390.771 47.1056C390.862 47.3691 391.004 47.6116 391.191 47.8185C391.36 47.9917 391.564 48.128 391.788 48.2191C392.013 48.3102 392.254 48.3541 392.496 48.3481H394.84V53.5924C394.209 53.8487 393.554 54.0443 392.886 54.1768C391.859 54.3956 390.81 54.4982 389.76 54.4828C388.608 54.5189 387.459 54.3393 386.373 53.9532C385.565 53.6586 384.847 53.1586 384.29 52.5019C383.783 51.8713 383.414 51.1401 383.208 50.3564H382.762C381.92 51.2258 380.956 51.9683 379.902 52.5608C378.703 53.2393 377.412 53.7375 376.069 54.0395C374.529 54.3851 372.954 54.5535 371.376 54.5416V54.5416ZM373.822 48.5167C374.878 48.5165 375.929 48.3753 376.948 48.097C377.911 47.8369 378.832 47.4407 379.683 46.9203C380.476 46.4378 381.158 45.7921 381.684 45.0258C382.193 44.2987 382.466 43.4315 382.465 42.5428V40.9268C379.996 40.9025 377.527 41.0427 375.076 41.3465C373.039 41.6263 371.476 42.0918 370.387 42.7429C369.891 42.9965 369.474 43.384 369.184 43.862C368.894 44.3401 368.742 44.8898 368.746 45.4494C368.731 45.7769 368.782 46.1041 368.897 46.4109C369.012 46.7178 369.188 46.9979 369.415 47.2341C369.927 47.7184 370.56 48.0557 371.247 48.2108C372.089 48.4214 372.954 48.5243 373.822 48.5167V48.5167Z" fill="#F4A60B"/>
<path d="M397.919 53.8553V24.5154H404.589L405.249 28.936H405.64C406.389 27.8117 407.34 26.8379 408.445 26.0648C409.517 25.3146 410.705 24.7486 411.962 24.3899C413.234 24.0342 414.549 23.8561 415.869 23.8604C417.845 23.7986 419.808 24.2101 421.594 25.0606C423.189 25.9023 424.445 27.2713 425.15 28.936H425.54C427.091 26.6974 429.385 25.0858 432.011 24.3899C433.325 24.0368 434.679 23.8588 436.04 23.8604C437.96 23.8064 439.869 24.1871 441.623 24.9743C443.176 25.7357 444.436 26.9904 445.206 28.5437C446.058 30.1781 446.484 32.2609 446.484 34.7922V53.8553H438.278V36.2043C438.297 35.298 438.175 34.3944 437.919 33.5252C437.722 32.857 437.37 32.2453 436.891 31.7405C436.42 31.279 435.835 30.9514 435.196 30.7913C434.479 30.6025 433.741 30.5089 433 30.5128C431.824 30.5018 430.665 30.7993 429.639 31.3757C428.616 31.9553 427.77 32.8043 427.193 33.8312C426.573 34.9264 426.256 36.1683 426.275 37.4281V53.8553H418.144V36.1807C418.164 35.272 418.032 34.3663 417.753 33.5017C417.536 32.83 417.165 32.2188 416.67 31.717C416.2 31.2678 415.627 30.9418 415.002 30.7678C414.268 30.5719 413.511 30.4781 412.751 30.4893C411.575 30.4783 410.417 30.7757 409.391 31.3522C408.372 31.9276 407.534 32.7782 406.972 33.8077C406.368 34.9081 406.061 36.1481 406.081 37.4045V53.8788H397.915L397.919 53.8553Z" fill="#F4A60B"/>
<path d="M310.112 79.6121L302.866 62.5766H308.92L311.625 69.6559C311.754 69.9791 311.904 70.4209 312.076 70.9812C312.248 71.5415 312.43 72.1126 312.623 72.6945C312.838 73.2763 313.01 73.8043 313.139 74.2784H313.396C313.546 73.8043 313.707 73.2871 313.879 72.7268C314.072 72.1449 314.255 71.5739 314.427 71.0136C314.62 70.4532 314.781 70.0007 314.91 69.6559L317.582 62.5766H323.314L316.069 79.6121H310.112Z" fill="#F4A60B"/>
<path d="M325.46 60.2492V56.2085H331.063V60.2492H325.46ZM325.46 79.6121V62.5766H331.063V79.6121H325.46Z" fill="#F4A60B"/>
<path d="M344.677 80C342.552 80 340.716 79.6875 339.17 79.0626C337.646 78.4161 336.466 77.4355 335.628 76.121C334.812 74.8064 334.405 73.1255 334.405 71.0782C334.405 69.074 334.812 67.4146 335.628 66.1001C336.444 64.7855 337.603 63.805 339.106 63.1585C340.609 62.512 342.391 62.1887 344.451 62.1887C346.555 62.1887 348.348 62.5012 349.829 63.1261C351.31 63.7511 352.437 64.7101 353.21 66.0031C353.983 67.2961 354.37 68.9447 354.37 70.9489V72.2096H340.169C340.212 73.1147 340.394 73.869 340.716 74.4724C341.06 75.0758 341.564 75.5283 342.23 75.83C342.895 76.1317 343.722 76.2826 344.709 76.2826C345.267 76.2826 345.782 76.2179 346.255 76.0886C346.727 75.9593 347.146 75.7762 347.511 75.5391C347.876 75.3021 348.155 75.0219 348.348 74.6987C348.563 74.3754 348.681 73.9983 348.702 73.5673H354.305C354.305 74.5801 354.08 75.4852 353.629 76.2826C353.178 77.08 352.523 77.7588 351.665 78.3191C350.827 78.8579 349.818 79.2781 348.638 79.5798C347.457 79.8599 346.137 80 344.677 80ZM340.201 69.171H348.477C348.477 68.6322 348.38 68.1689 348.187 67.781C348.015 67.3715 347.758 67.0267 347.414 66.7466C347.071 66.4664 346.663 66.2617 346.19 66.1324C345.718 65.9816 345.203 65.9061 344.645 65.9061C343.743 65.9061 342.981 66.0354 342.358 66.294C341.736 66.5526 341.242 66.9298 340.877 67.4254C340.534 67.8995 340.308 68.4814 340.201 69.171Z" fill="#F4A60B"/>
<path d="M364.938 80C363.671 80 362.609 79.8384 361.75 79.5151C360.891 79.1703 360.247 78.6424 359.818 77.9312C359.389 77.1985 359.174 76.2395 359.174 75.0542V66.5203H356.405V62.5766H359.367L360.494 57.5338H364.777V62.5766H368.802V66.5203H364.777V73.8582C364.777 74.5693 364.917 75.1189 365.196 75.5068C365.496 75.8731 366.065 76.0563 366.902 76.0563H368.802V79.4182C368.523 79.5259 368.147 79.6229 367.675 79.7091C367.203 79.7953 366.72 79.8599 366.226 79.903C365.732 79.9677 365.303 80 364.938 80Z" fill="#F4A60B"/>
<path d="M372.002 79.6121V62.5766H376.574L376.961 65.195H377.218C377.734 64.5054 378.324 63.9451 378.989 63.514C379.676 63.0615 380.417 62.7275 381.211 62.512C382.006 62.2965 382.821 62.1887 383.659 62.1887C385.097 62.1887 386.299 62.4365 387.265 62.9322C388.253 63.4063 388.993 64.139 389.487 65.1303C390.002 66.1001 390.26 67.3392 390.26 68.8477V79.6121H384.625V69.6236C384.625 69.1063 384.55 68.6538 384.399 68.2659C384.27 67.8564 384.077 67.5224 383.82 67.2638C383.562 67.0052 383.229 66.8112 382.821 66.6819C382.435 66.5526 381.995 66.488 381.501 66.488C380.771 66.488 380.106 66.6496 379.505 66.9729C378.925 67.2961 378.463 67.7379 378.12 68.2982C377.776 68.837 377.605 69.4619 377.605 70.1731V79.6121H372.002Z" fill="#F4A60B"/>
<path d="M399.933 80C399.074 80 398.248 79.9246 397.453 79.7737C396.659 79.6229 395.95 79.3643 395.328 78.9979C394.705 78.6316 394.222 78.1359 393.879 77.511C393.535 76.8645 393.364 76.0563 393.364 75.0866C393.364 73.7935 393.675 72.7591 394.297 71.9833C394.92 71.186 395.811 70.5933 396.97 70.2054C398.151 69.796 399.536 69.5266 401.124 69.3973C402.734 69.2464 404.527 69.171 406.502 69.171V68.3952C406.502 67.8133 406.373 67.35 406.115 67.0052C405.858 66.6388 405.471 66.3695 404.956 66.1971C404.441 66.0031 403.797 65.9061 403.024 65.9061C402.402 65.9061 401.822 65.9708 401.285 66.1001C400.77 66.2078 400.351 66.3802 400.029 66.6173C399.729 66.8543 399.579 67.156 399.579 67.5224V67.781H393.975C393.954 67.6948 393.943 67.6194 393.943 67.5547C393.943 67.4685 393.943 67.3716 393.943 67.2638C393.943 66.2509 394.297 65.3674 395.006 64.6131C395.714 63.8373 396.756 63.2447 398.129 62.8352C399.525 62.4042 401.21 62.1887 403.185 62.1887C405.031 62.1887 406.62 62.3827 407.951 62.7706C409.282 63.1369 410.302 63.7295 411.01 64.5485C411.74 65.3674 412.105 66.4449 412.105 67.781V74.828C412.105 75.1943 412.191 75.496 412.363 75.7331C412.556 75.9486 412.824 76.0563 413.168 76.0563H414.584V79.4182C414.305 79.5259 413.876 79.6444 413.296 79.7737C412.717 79.9246 412.062 80 411.332 80C410.43 80 409.679 79.8923 409.078 79.6768C408.498 79.4828 408.037 79.2134 407.693 78.8686C407.371 78.5238 407.135 78.1251 406.985 77.6726H406.759C406.244 78.1251 405.654 78.5346 404.988 78.901C404.323 79.2458 403.572 79.5151 402.734 79.7091C401.897 79.903 400.963 80 399.933 80ZM401.768 76.2826C402.262 76.2826 402.777 76.2179 403.314 76.0886C403.872 75.9593 404.387 75.7654 404.86 75.5068C405.353 75.2482 405.751 74.9357 406.051 74.5693C406.352 74.1814 406.502 73.7397 406.502 73.244V72.1773C404.827 72.1773 403.432 72.2635 402.316 72.4359C401.199 72.6083 400.362 72.8776 399.804 73.244C399.246 73.5888 398.967 74.0521 398.967 74.634C398.967 75.0435 399.096 75.3775 399.353 75.6361C399.611 75.8731 399.954 76.0455 400.384 76.1533C400.813 76.2395 401.274 76.2826 401.768 76.2826Z" fill="#F4A60B"/>
<path d="M416.719 79.6121V62.5766H421.292L421.678 65.195H421.936C422.429 64.5054 422.998 63.9451 423.642 63.514C424.286 63.0615 424.995 62.7275 425.768 62.512C426.541 62.2965 427.324 62.1887 428.118 62.1887C429.514 62.1887 430.673 62.4365 431.596 62.9322C432.541 63.4278 433.249 64.1821 433.721 65.195H433.979C434.473 64.5054 435.042 63.9451 435.686 63.514C436.351 63.0615 437.07 62.7275 437.843 62.512C438.616 62.2965 439.41 62.1887 440.226 62.1887C441.6 62.1887 442.749 62.4365 443.672 62.9322C444.616 63.4063 445.325 64.1282 445.797 65.098C446.291 66.0678 446.538 67.2961 446.538 68.7831V79.6121H440.935V69.6236C440.935 69.0848 440.87 68.6215 440.741 68.2336C440.613 67.8457 440.419 67.5224 440.162 67.2638C439.926 67.0052 439.625 66.8112 439.26 66.6819C438.917 66.5526 438.52 66.488 438.069 66.488C437.382 66.488 436.759 66.6496 436.201 66.9729C435.664 67.2961 435.235 67.7379 434.913 68.2982C434.591 68.837 434.43 69.4619 434.43 70.1731V79.6121H428.827V69.6236C428.827 69.0848 428.762 68.6215 428.634 68.2336C428.505 67.8457 428.312 67.5224 428.054 67.2638C427.818 67.0052 427.517 66.8112 427.152 66.6819C426.809 66.5526 426.412 66.488 425.961 66.488C425.274 66.488 424.651 66.6496 424.093 66.9729C423.557 67.2961 423.127 67.7379 422.805 68.2982C422.483 68.837 422.322 69.4619 422.322 70.1731V79.6121H416.719Z" fill="#F4A60B"/>
</svg>
