<svg width="174" height="48" viewBox="0 0 174 48" fill="none" xmlns="http://www.w3.org/2000/svg">
<path d="M20.2782 47.9865L7.28043 34.9484C3.1247 30.7799 0.790039 25.126 0.790039 19.2305C0.790039 13.3353 3.1247 7.68141 7.28043 3.51277L10.7739 0.00848389L23.7791 13.0539C27.9315 17.2232 30.2634 22.876 30.2621 28.7697C30.2607 34.6631 27.9261 40.3148 23.7717 44.482L20.2782 47.9865Z" fill="url(#paint0_linear_23_106)"/>
<path d="M16.7866 13.0528L29.7991 0L33.2926 3.50429C35.3523 5.56867 36.9863 8.02 38.1013 10.7182C39.2163 13.4165 39.7901 16.3086 39.7901 19.2295C39.7901 22.1503 39.2163 25.0425 38.1013 27.7408C36.9863 30.4389 35.3523 32.8901 33.2926 34.9547L20.2873 48L16.7866 44.4885C12.6308 40.3197 10.2961 34.6659 10.2961 28.7707C10.2961 22.8752 12.6308 17.2214 16.7866 13.0528Z" fill="url(#paint1_linear_23_106)"/>
<path d="M69.3128 38.424C67.2848 38.424 65.5168 38.099 64.0088 37.449C62.5008 36.799 61.3308 35.889 60.4988 34.719C59.6928 33.549 59.2898 32.171 59.2898 30.585V29.61C59.2898 29.48 59.3288 29.376 59.4068 29.298C59.5108 29.194 59.6278 29.142 59.7578 29.142H63.2288C63.3588 29.142 63.4628 29.194 63.5408 29.298C63.6448 29.376 63.6968 29.48 63.6968 29.61V30.351C63.6968 31.547 64.2298 32.548 65.2958 33.354C66.3618 34.134 67.8178 34.524 69.6638 34.524C71.2498 34.524 72.4458 34.186 73.2518 33.51C74.0578 32.834 74.4608 31.963 74.4608 30.897C74.4608 30.169 74.2398 29.558 73.7978 29.064C73.3558 28.544 72.7188 28.076 71.8868 27.66C71.0808 27.244 69.8588 26.724 68.2208 26.1C66.3748 25.424 64.8798 24.787 63.7358 24.189C62.5918 23.591 61.6298 22.785 60.8498 21.771C60.0958 20.731 59.7188 19.444 59.7188 17.91C59.7188 15.622 60.5508 13.815 62.2148 12.489C63.8788 11.163 66.1018 10.5 68.8838 10.5C70.8338 10.5 72.5498 10.838 74.0318 11.514C75.5398 12.19 76.7098 13.139 77.5418 14.361C78.3738 15.557 78.7898 16.948 78.7898 18.534V19.197C78.7898 19.327 78.7378 19.444 78.6338 19.548C78.5558 19.626 78.4518 19.665 78.3218 19.665H74.8118C74.6818 19.665 74.5648 19.626 74.4608 19.548C74.3828 19.444 74.3438 19.327 74.3438 19.197V18.768C74.3438 17.546 73.8368 16.519 72.8228 15.687C71.8348 14.829 70.4568 14.4 68.6888 14.4C67.2588 14.4 66.1408 14.699 65.3348 15.297C64.5548 15.895 64.1648 16.74 64.1648 17.832C64.1648 18.612 64.3728 19.249 64.7888 19.743C65.2048 20.237 65.8288 20.692 66.6608 21.108C67.4928 21.498 68.7798 22.005 70.5218 22.629C72.3678 23.331 73.8368 23.968 74.9288 24.54C76.0468 25.112 76.9958 25.918 77.7758 26.958C78.5818 27.972 78.9848 29.246 78.9848 30.78C78.9848 33.12 78.1138 34.979 76.3718 36.357C74.6558 37.735 72.3028 38.424 69.3128 38.424Z" fill="#F1F2F2"/>
<path d="M100.311 25.905C100.415 26.555 100.467 27.283 100.467 28.089L100.428 29.298C100.428 29.61 100.272 29.766 99.9598 29.766H87.7528C87.6228 29.766 87.5578 29.831 87.5578 29.961C87.6358 30.819 87.7528 31.404 87.9088 31.716C88.5328 33.588 90.0538 34.537 92.4718 34.563C94.2398 34.563 95.6438 33.835 96.6838 32.379C96.7878 32.223 96.9178 32.145 97.0738 32.145C97.1778 32.145 97.2688 32.184 97.3468 32.262L99.7648 34.251C99.9988 34.433 100.038 34.641 99.8818 34.875C99.0758 36.019 97.9968 36.903 96.6448 37.527C95.3188 38.151 93.8368 38.463 92.1988 38.463C90.1708 38.463 88.4418 38.008 87.0118 37.098C85.6078 36.188 84.5808 34.914 83.9308 33.276C83.3328 31.872 83.0338 29.922 83.0338 27.426C83.0338 25.918 83.1898 24.696 83.5018 23.76C84.0218 21.94 84.9968 20.51 86.4268 19.47C87.8828 18.404 89.6248 17.871 91.6528 17.871C96.7748 17.871 99.6608 20.549 100.311 25.905ZM91.6528 21.771C90.6908 21.771 89.8848 22.018 89.2348 22.512C88.6108 22.98 88.1688 23.643 87.9088 24.501C87.7528 24.943 87.6488 25.515 87.5968 26.217C87.5448 26.347 87.5968 26.412 87.7528 26.412H95.6698C95.7998 26.412 95.8648 26.347 95.8648 26.217C95.8128 25.567 95.7348 25.073 95.6308 24.735C95.3968 23.799 94.9288 23.071 94.2268 22.551C93.5508 22.031 92.6928 21.771 91.6528 21.771Z" fill="#F1F2F2"/>
<path d="M114.546 17.871C116.652 17.871 118.329 18.495 119.577 19.743C120.851 20.991 121.488 22.694 121.488 24.852V37.644C121.488 37.774 121.436 37.891 121.332 37.995C121.254 38.073 121.15 38.112 121.02 38.112H117.432C117.302 38.112 117.185 38.073 117.081 37.995C117.003 37.891 116.964 37.774 116.964 37.644V25.788C116.964 24.592 116.626 23.63 115.95 22.902C115.274 22.148 114.377 21.771 113.259 21.771C112.141 21.771 111.231 22.135 110.529 22.863C109.853 23.591 109.515 24.553 109.515 25.749V37.644C109.515 37.774 109.463 37.891 109.359 37.995C109.281 38.073 109.177 38.112 109.047 38.112H105.459C105.329 38.112 105.212 38.073 105.108 37.995C105.03 37.891 104.991 37.774 104.991 37.644V18.651C104.991 18.521 105.03 18.417 105.108 18.339C105.212 18.235 105.329 18.183 105.459 18.183H109.047C109.177 18.183 109.281 18.235 109.359 18.339C109.463 18.417 109.515 18.521 109.515 18.651V19.899C109.515 19.977 109.541 20.029 109.593 20.055C109.645 20.081 109.684 20.055 109.71 19.977C110.776 18.573 112.388 17.871 114.546 17.871Z" fill="#F1F2F2"/>
<path d="M137.164 21.381C137.164 21.511 137.112 21.628 137.008 21.732C136.93 21.81 136.826 21.849 136.696 21.849H132.718C132.588 21.849 132.523 21.914 132.523 22.044V31.443C132.523 32.431 132.731 33.146 133.147 33.588C133.589 34.03 134.278 34.251 135.214 34.251H136.384C136.514 34.251 136.618 34.303 136.696 34.407C136.8 34.485 136.852 34.589 136.852 34.719V37.644C136.852 37.93 136.696 38.099 136.384 38.151L134.356 38.19C132.302 38.19 130.768 37.839 129.754 37.137C128.74 36.435 128.22 35.109 128.194 33.159V22.044C128.194 21.914 128.129 21.849 127.999 21.849H125.776C125.646 21.849 125.529 21.81 125.425 21.732C125.347 21.628 125.308 21.511 125.308 21.381V18.651C125.308 18.521 125.347 18.417 125.425 18.339C125.529 18.235 125.646 18.183 125.776 18.183H127.999C128.129 18.183 128.194 18.118 128.194 17.988V13.425C128.194 13.295 128.233 13.191 128.311 13.113C128.415 13.009 128.532 12.957 128.662 12.957H132.055C132.185 12.957 132.289 13.009 132.367 13.113C132.471 13.191 132.523 13.295 132.523 13.425V17.988C132.523 18.118 132.588 18.183 132.718 18.183H136.696C136.826 18.183 136.93 18.235 137.008 18.339C137.112 18.417 137.164 18.521 137.164 18.651V21.381Z" fill="#F1F2F2"/>
<path d="M150.854 17.949C151.686 17.949 152.414 18.118 153.038 18.456C153.246 18.56 153.324 18.755 153.272 19.041L152.609 22.551C152.583 22.863 152.401 22.954 152.063 22.824C151.673 22.694 151.218 22.629 150.698 22.629C150.36 22.629 150.1 22.642 149.918 22.668C148.826 22.72 147.916 23.11 147.188 23.838C146.46 24.54 146.096 25.463 146.096 26.607V37.644C146.096 37.774 146.044 37.891 145.94 37.995C145.862 38.073 145.758 38.112 145.628 38.112H142.04C141.91 38.112 141.793 38.073 141.689 37.995C141.611 37.891 141.572 37.774 141.572 37.644V18.651C141.572 18.521 141.611 18.417 141.689 18.339C141.793 18.235 141.91 18.183 142.04 18.183H145.628C145.758 18.183 145.862 18.235 145.94 18.339C146.044 18.417 146.096 18.521 146.096 18.651V20.406C146.096 20.51 146.109 20.575 146.135 20.601C146.187 20.601 146.239 20.562 146.291 20.484C147.383 18.794 148.904 17.949 150.854 17.949Z" fill="#F1F2F2"/>
<path d="M173.053 25.905C173.157 26.555 173.209 27.283 173.209 28.089L173.17 29.298C173.17 29.61 173.014 29.766 172.702 29.766H160.495C160.365 29.766 160.3 29.831 160.3 29.961C160.378 30.819 160.495 31.404 160.651 31.716C161.275 33.588 162.796 34.537 165.214 34.563C166.982 34.563 168.386 33.835 169.426 32.379C169.53 32.223 169.66 32.145 169.816 32.145C169.92 32.145 170.011 32.184 170.089 32.262L172.507 34.251C172.741 34.433 172.78 34.641 172.624 34.875C171.818 36.019 170.739 36.903 169.387 37.527C168.061 38.151 166.579 38.463 164.941 38.463C162.913 38.463 161.184 38.008 159.754 37.098C158.35 36.188 157.323 34.914 156.673 33.276C156.075 31.872 155.776 29.922 155.776 27.426C155.776 25.918 155.932 24.696 156.244 23.76C156.764 21.94 157.739 20.51 159.169 19.47C160.625 18.404 162.367 17.871 164.395 17.871C169.517 17.871 172.403 20.549 173.053 25.905ZM164.395 21.771C163.433 21.771 162.627 22.018 161.977 22.512C161.353 22.98 160.911 23.643 160.651 24.501C160.495 24.943 160.391 25.515 160.339 26.217C160.287 26.347 160.339 26.412 160.495 26.412H168.412C168.542 26.412 168.607 26.347 168.607 26.217C168.555 25.567 168.477 25.073 168.373 24.735C168.139 23.799 167.671 23.071 166.969 22.551C166.293 22.031 165.435 21.771 164.395 21.771Z" fill="#F1F2F2"/>
<defs>
<linearGradient id="paint0_linear_23_106" x1="30.2743" y1="24.0011" x2="0.785241" y2="24.0011" gradientUnits="userSpaceOnUse">
<stop stop-color="#F9575E"/>
<stop offset="0.27" stop-color="#F8555B"/>
<stop offset="0.49" stop-color="#F44F51"/>
<stop offset="0.68" stop-color="#EE4540"/>
<stop offset="0.87" stop-color="#E63728"/>
<stop offset="1" stop-color="#DE2A13"/>
</linearGradient>
<linearGradient id="paint1_linear_23_106" x1="-88441.1" y1="74252.8" x2="-89232.4" y2="74059.2" gradientUnits="userSpaceOnUse">
<stop stop-color="#F9575E"/>
<stop offset="0.27" stop-color="#F8555B"/>
<stop offset="0.49" stop-color="#F44F51"/>
<stop offset="0.68" stop-color="#EE4540"/>
<stop offset="0.87" stop-color="#E63728"/>
<stop offset="1" stop-color="#DE2A13"/>
</linearGradient>
</defs>
</svg>
