<svg width="285" height="131" viewBox="0 0 285 131" fill="none" xmlns="http://www.w3.org/2000/svg">
<path d="M12.5722 25.0861C19.5017 25.0861 25.1191 19.4704 25.1191 12.5431C25.1191 5.61572 19.5017 0 12.5722 0C5.6428 0 0.0253906 5.61572 0.0253906 12.5431C0.0253906 19.4704 5.6428 25.0861 12.5722 25.0861Z" fill="url(#paint0_linear_2532_27766)"/>
<path d="M83.208 25.0861C90.1374 25.0861 95.7548 19.4704 95.7548 12.5431C95.7548 5.61572 90.1374 0 83.208 0C76.2785 0 70.6611 5.61572 70.6611 12.5431C70.6611 19.4704 76.2785 25.0861 83.208 25.0861Z" fill="url(#paint1_linear_2532_27766)"/>
<path d="M12.7772 130.951C19.7066 130.951 25.324 125.335 25.324 118.408C25.324 111.481 19.7066 105.865 12.7772 105.865C5.84776 105.865 0.230347 111.481 0.230347 118.408C0.230347 125.335 5.84776 130.951 12.7772 130.951Z" fill="url(#paint2_linear_2532_27766)"/>
<path d="M83.4129 130.951C90.3424 130.951 95.9598 125.335 95.9598 118.408C95.9598 111.481 90.3424 105.865 83.4129 105.865C76.4835 105.865 70.8661 111.481 70.8661 118.408C70.8661 125.335 76.4835 130.951 83.4129 130.951Z" fill="url(#paint3_linear_2532_27766)"/>
<path d="M3.65735 56.6943C4.89648 57.999 6.4084 59.0141 8.08521 59.6673C9.76202 60.3205 11.5624 60.5957 13.3578 60.4732C17.2901 61.1425 20.9223 63.0017 23.7642 65.8L30.0035 71.9577C33.3253 75.2663 35.363 79.6472 35.7531 84.3186C35.7475 84.364 35.7475 84.4099 35.7531 84.4552C35.9968 86.7657 36.8909 88.9596 38.3318 90.7824C39.7727 92.6052 41.7012 93.982 43.8934 94.753C46.0857 95.524 48.4517 95.6576 50.7168 95.1382C52.9819 94.6188 55.0532 93.4678 56.6902 91.8188C58.3272 90.1698 59.4628 88.0904 59.965 85.8221C60.4673 83.5538 60.3157 81.1895 59.5278 79.0039C58.7399 76.8183 57.348 74.9009 55.5138 73.4743C53.6796 72.0478 51.4782 71.1706 49.1653 70.9447H48.8693C44.2209 70.6192 39.8428 68.6407 36.5274 65.3675L30.2881 59.187C27.4303 56.3756 25.0394 52.813 24.8344 48.8407C24.5839 44.1057 27.1798 39.6667 30.5272 36.3204L36.3566 30.4927C39.2485 27.6017 42.9032 25.2114 46.9565 25.0293C51.6587 24.8244 56.0649 27.4082 59.3781 30.7204L65.7084 37.0488C68.9755 40.3509 71.0093 44.6743 71.4695 49.2959C71.4639 49.3413 71.4639 49.3872 71.4695 49.4325C71.7362 51.7452 72.6543 53.9347 74.1171 55.7462C75.5798 57.5576 77.5271 58.9166 79.7322 59.665C81.9373 60.4133 84.3097 60.5203 86.5733 59.9735C88.8369 59.4267 90.8986 58.2485 92.5186 56.576C94.1385 54.9036 95.2501 52.8057 95.724 50.5264C96.1979 48.247 96.0147 45.88 95.1955 43.7008C94.3764 41.5215 92.9551 39.6196 91.0969 38.2163C89.2388 36.813 87.0203 35.9661 84.6995 35.774H84.5515C79.7386 35.4827 75.1934 33.4614 71.7542 30.083L65.9248 24.2553C62.6192 20.9 60.6034 16.4867 60.232 11.792C60.2376 11.7466 60.2376 11.7007 60.232 11.6554C59.9417 8.78696 58.6521 6.11183 56.5886 4.09766C54.9693 2.40995 52.9012 1.22003 50.628 0.668065C48.3547 0.116101 45.9711 0.225084 43.7577 0.982177C41.5444 1.73927 39.5936 3.11294 38.1351 4.94137C36.6766 6.76981 35.7711 8.97685 35.5254 11.3025C35.531 11.3479 35.531 11.3938 35.5254 11.4391C35.1614 16.1524 33.1455 20.5861 29.8327 23.9594L23.4682 30.2423C20.6218 33.0878 15.874 35.683 13.0618 35.7171C10.5658 35.5541 8.07959 36.158 5.93675 37.4479C3.79392 38.7378 2.09693 40.652 1.07346 42.9337C0.0499932 45.2154 -0.251005 47.7554 0.210849 50.213C0.672703 52.6706 1.87532 54.9282 3.65735 56.6829V56.6943Z" fill="url(#paint4_linear_2532_27766)"/>
<path d="M95.9483 82.1787C95.6333 78.9195 94.0748 75.9069 91.5963 73.7662C89.1179 71.6255 85.91 70.5213 82.6387 70.6828C78.7036 70.0145 75.0701 68.1506 72.2323 65.3446L66.05 59.1869C62.7072 55.8868 60.6488 51.5049 60.2434 46.8259C60.2489 46.7806 60.2489 46.7347 60.2434 46.6893C59.9997 44.3789 59.1056 42.185 57.6647 40.3622C56.2238 38.5394 54.2953 37.1626 52.1031 36.3916C49.9108 35.6206 47.5448 35.487 45.2797 36.0064C43.0146 36.5258 40.9433 37.6768 39.3063 39.3258C37.6693 40.9748 36.5337 43.0542 36.0315 45.3225C35.5292 47.5908 35.6808 49.955 36.4687 52.1407C37.2566 54.3263 38.6485 56.2437 40.4827 57.6702C42.3169 59.0968 44.5183 59.9739 46.8312 60.1999H47.1272C51.7768 60.5204 56.1566 62.4996 59.4691 65.7771L65.7084 71.9348C68.5662 74.7462 70.9571 78.3088 71.1621 82.2811C71.4125 87.0161 68.8166 91.4551 65.4693 94.8014L59.6399 100.629C56.748 103.52 53.0932 105.91 49.04 106.092C44.3378 106.297 39.9316 103.714 36.6184 100.401L30.288 94.073C27.021 90.7709 24.9872 86.4475 24.527 81.8259C24.5326 81.7805 24.5326 81.7346 24.527 81.6893C24.2603 79.3765 23.3421 77.1871 21.8794 75.3756C20.4166 73.5642 18.4694 72.2052 16.2643 71.4568C14.0591 70.7085 11.6868 70.6015 9.42318 71.1483C7.1596 71.6951 5.09789 72.8733 3.47792 74.5458C1.85796 76.2182 0.746353 78.3161 0.272449 80.5954C-0.201455 82.8748 -0.0181749 85.2417 0.800965 87.421C1.6201 89.6003 3.04142 91.5022 4.89955 92.9055C6.75767 94.3088 8.97619 95.1557 11.297 95.3478H11.3995C16.2124 95.6391 20.7576 97.6604 24.1968 101.039L30.0489 106.992C33.3667 110.362 35.3835 114.797 35.7417 119.512C35.7361 119.557 35.7361 119.603 35.7417 119.649C36.0042 122.723 37.4037 125.59 39.6668 127.689C41.93 129.788 44.8943 130.968 47.9812 130.999C51.068 131.031 54.0557 129.911 56.3609 127.858C58.6662 125.806 60.1235 122.968 60.4483 119.899C60.4427 119.854 60.4427 119.808 60.4483 119.762C60.8123 115.049 62.8283 110.615 66.1411 107.242L72.4714 100.914C75.3178 98.0681 77.4127 96.5315 82.8778 95.4388C92.0317 95.0177 96.5404 89.6681 95.9483 82.1787Z" fill="url(#paint5_linear_2532_27766)"/>
<path d="M130.41 21.6241C129.209 21.6133 128.021 21.3678 126.913 20.9013C125.746 20.4183 124.649 19.7833 123.649 19.0127L120 23.3844C121.406 24.6199 123.031 25.5808 124.791 26.2172C126.468 26.8334 128.239 27.1529 130.026 27.1615C131.963 27.2114 133.887 26.8125 135.645 25.9957C137.068 25.3384 138.279 24.2967 139.142 22.988C139.917 21.7736 140.322 20.36 140.308 18.9195C140.309 17.8202 140.058 16.7353 139.573 15.7486C139.12 14.844 138.475 14.0485 137.685 13.4171C136.787 12.7145 135.778 12.1668 134.7 11.7966L131.634 10.5026C130.783 10.1762 130.037 9.89644 129.408 9.63997C128.866 9.45202 128.362 9.17201 127.916 8.81228C127.75 8.6678 127.619 8.48807 127.533 8.28632C127.446 8.08457 127.405 7.86594 127.414 7.64651C127.398 7.33722 127.467 7.02939 127.613 6.75617C127.758 6.48296 127.976 6.25471 128.242 6.09604C128.885 5.73545 129.616 5.56181 130.352 5.59476C131.442 5.56493 132.529 5.73482 133.558 6.09604C134.522 6.47596 135.438 6.96903 136.286 7.56491L139.573 3.50803C138.379 2.37368 136.967 1.49327 135.423 0.92003C133.933 0.353757 132.354 0.0615 130.76 0.0573623C128.971 0.0224667 127.199 0.405682 125.584 1.1765C124.212 1.81802 123.03 2.8065 122.157 4.04429C121.367 5.22168 120.96 6.61395 120.991 8.03121C120.968 9.1803 121.228 10.3174 121.749 11.342C122.248 12.2572 122.94 13.0528 123.777 13.6735C124.614 14.3145 125.541 14.829 126.528 15.2007L129.862 16.5996L131.949 17.4623C132.454 17.658 132.912 17.9602 133.29 18.3483C133.609 18.7199 133.776 19.1991 133.756 19.6889C133.755 19.9613 133.682 20.2286 133.545 20.4639C133.408 20.6993 133.211 20.8944 132.975 21.0295C132.209 21.4475 131.338 21.6338 130.469 21.5658L130.41 21.6241Z" fill="black"/>
<path d="M148.643 25.6576C150.306 26.6649 152.213 27.1974 154.157 27.1974C156.101 27.1974 158.008 26.6649 159.671 25.6576C161.337 24.535 162.635 22.9453 163.401 21.0878C164.366 18.702 164.823 16.141 164.742 13.5686C164.826 11.0339 164.369 8.51027 163.401 6.16601C162.635 4.32453 161.336 2.75371 159.671 1.65449C158.44 0.84282 157.046 0.312876 155.587 0.102495C154.127 -0.107885 152.64 0.00648734 151.23 0.437446C149.82 0.868405 148.523 1.60532 147.431 2.59557C146.339 3.58582 145.479 4.80499 144.912 6.16601C143.95 8.51187 143.493 11.0343 143.572 13.5686C143.495 16.1407 143.952 18.7007 144.912 21.0878C145.675 22.9474 146.974 24.5382 148.643 25.6576V25.6576ZM150.613 9.197C150.844 8.20698 151.331 7.29469 152.024 6.55071C152.304 6.2678 152.638 6.04372 153.007 5.89159C153.375 5.73946 153.77 5.66233 154.169 5.66473C154.567 5.65968 154.963 5.73559 155.332 5.88787C155.701 6.04016 156.035 6.26565 156.314 6.55071C157.006 7.29344 157.489 8.20663 157.713 9.197C158.08 10.6126 158.252 12.0715 158.225 13.5337C158.257 15.0453 158.088 16.5544 157.724 18.0219C157.493 19.0267 157.012 19.9569 156.325 20.7264C156.045 21.0112 155.711 21.2374 155.343 21.3919C154.975 21.5463 154.58 21.6258 154.18 21.6258C153.781 21.6258 153.386 21.5463 153.017 21.3919C152.649 21.2374 152.315 21.0112 152.035 20.7264C151.343 19.9593 150.858 19.0285 150.625 18.0219C150.238 16.5576 150.05 15.048 150.065 13.5337C150.044 12.0581 150.228 10.5867 150.613 9.16203V9.197Z" fill="black"/>
<path d="M186.81 21.3093H175.456V0.570312H169.044V26.6835H186.81V21.3093Z" fill="black"/>
<path d="M197.232 0.570312L189.212 26.6835H195.787L197.232 20.7847H204.74L206.185 26.6835H213.017L204.996 0.570312H197.232ZM198.398 15.8535L198.923 13.7318C199.249 12.4495 199.575 11.0739 199.902 9.60501C200.24 8.13614 200.531 6.72556 200.799 5.39659H200.963C201.289 6.73722 201.627 8.13614 201.988 9.60501C202.35 11.0739 202.676 12.4495 202.968 13.7318L203.492 15.8535H198.398Z" fill="black"/>
<path d="M221.748 18.255C221.745 16.6137 221.636 14.9744 221.422 13.3471C221.212 11.6218 221.025 10.0247 220.862 8.55582H221.025L223.194 14.3264L228.172 26.6835H234.712V0.570312H228.615V8.95218C228.62 10.6201 228.725 12.2862 228.929 13.9417C229.139 15.6903 229.326 17.2758 229.489 18.698H229.337L227.169 12.8692L222.18 0.570312H215.64V26.6835H221.737V18.255H221.748Z" fill="black"/>
<path d="M245.367 0.570312L237.346 26.6835H243.921L245.367 20.7847H252.874L254.32 26.6835H261.093L253.072 0.570312H245.367ZM246.532 15.8535L247.057 13.7318C247.383 12.4495 247.71 11.0739 248.036 9.60501C248.374 8.13614 248.666 6.72556 248.934 5.39659H249.155C249.482 6.73722 249.82 8.13614 250.181 9.60501C250.543 11.0739 250.869 12.4495 251.161 13.7318L251.685 15.8535H246.532Z" fill="black"/>
<path d="M133.919 46.716C133.546 48.1383 133.208 49.5139 132.917 50.8662C132.625 52.2184 132.287 53.6057 131.914 55.0163H131.751C131.378 53.5941 131.04 52.2184 130.748 50.8662C130.457 49.5139 130.119 48.1383 129.746 46.716L126.773 34.9185H120L127.822 61.0317H135.528L143.35 34.9185H136.775L133.931 46.716H133.919Z" fill="black"/>
<path d="M164.964 40.3042V34.9301H146.51V40.3042H152.525V55.6574H146.51V61.0316H164.964V55.6574H158.948V40.3042H164.964Z" fill="black"/>
<path d="M187.44 55.6574H175.934V50.3298H185.4V44.9557H175.934V40.3042H187.043V34.9301H169.51V61.0316H187.44V55.6574Z" fill="black"/>
<path d="M205.288 61.0316V40.3042H212.947V34.9301H191.205V40.3042H198.876V61.0316H205.288Z" fill="black"/>
<path d="M222.751 52.6147C222.747 50.9735 222.638 49.3342 222.424 47.7069C222.215 45.9815 222.028 44.3844 221.865 42.9156H222.028L224.196 48.7444L229.128 61.1015H235.667V34.9301H229.571V43.3119C229.576 44.9799 229.681 46.646 229.885 48.3014C230.095 50.0501 230.282 51.6355 230.445 53.0577H230.282L228.113 47.2289L223.17 34.9301H216.63V61.0432H222.751V52.6147Z" fill="black"/>
<path d="M246.358 55.1445H253.865L255.311 61.0432H262.084L254.063 34.9301H246.358L238.337 61.0432H244.9L246.358 55.1445ZM249.062 43.9531C249.4 42.4842 249.692 41.0736 249.96 39.7447H250.123C250.449 41.0853 250.787 42.4842 251.149 43.9531C251.51 45.422 251.837 46.7976 252.128 48.0799L252.653 50.2016H247.558L248.083 48.0799C248.409 46.7976 248.736 45.422 249.062 43.9531Z" fill="black"/>
<path d="M277.542 34.9301L275.21 43.8365L274.406 47.3338H274.243L273.438 43.8365L271.107 34.9301H264.485V61.0432H269.743V53.9437C269.743 53.1627 269.743 52.2184 269.638 51.0992C269.533 49.9801 269.498 48.7677 269.44 47.6019C269.381 46.4362 269.288 45.1772 269.183 44.0464C269.078 42.9156 268.985 41.9946 268.903 41.2835H269.067L270.99 48.6628L272.751 54.2002H275.723L277.402 48.6628L279.524 41.2835H279.64C279.562 42.0063 279.469 42.9272 279.36 44.0464C279.255 45.2121 279.162 46.3779 279.104 47.6019C279.046 48.826 278.964 50.0267 278.906 51.0992C278.847 52.1718 278.801 53.1743 278.801 53.9437V61.0432H284.14V34.9301H277.542Z" fill="black"/>
<path d="M135.384 89.8975C134.636 90.3139 133.792 90.527 132.936 90.5154C131.759 90.5392 130.602 90.2103 129.613 89.5711C128.614 88.8959 127.839 87.938 127.387 86.8199C126.829 85.4317 126.563 83.9436 126.606 82.4483C126.561 80.9868 126.827 79.5325 127.387 78.1815C127.837 77.0854 128.589 76.1394 129.555 75.4536C130.471 74.8256 131.558 74.4958 132.668 74.5094C133.5 74.4927 134.326 74.6516 135.093 74.9757C135.811 75.2963 136.47 75.7379 137.039 76.2813L140.537 72.3527C139.548 71.3978 138.41 70.6103 137.168 70.0212C135.757 69.3306 134.204 68.9793 132.633 68.9953C130.403 68.9638 128.204 69.5185 126.256 70.6041C124.328 71.6949 122.751 73.3124 121.71 75.2671C120.512 77.5586 119.926 80.1204 120.008 82.7047C119.97 84.6915 120.302 86.668 120.987 88.5336C121.574 90.102 122.493 91.5255 123.68 92.707C124.804 93.8083 126.146 94.6621 127.62 95.2134C129.11 95.7775 130.69 96.0621 132.283 96.0528C133.945 96.0723 135.592 95.7468 137.121 95.0968C138.601 94.4455 139.907 93.4551 140.933 92.2057L137.436 88.3587C136.847 88.9714 136.172 89.4939 135.431 89.9092L135.384 89.8975Z" fill="black"/>
<path d="M148.522 94.5139C150.185 95.5212 152.092 96.0537 154.036 96.0537C155.98 96.0537 157.887 95.5212 159.55 94.5139C161.217 93.3913 162.514 91.8016 163.281 89.9441C164.251 87.5474 164.707 84.974 164.621 82.39C164.706 79.8552 164.248 77.3316 163.281 74.9873C162.521 73.1619 161.237 71.6023 159.592 70.5052C157.947 69.4082 156.014 68.8228 154.036 68.8228C152.059 68.8228 150.126 69.4082 148.48 70.5052C146.835 71.6023 145.552 73.1619 144.792 74.9873C143.829 77.3332 143.373 79.8556 143.451 82.39C143.374 84.962 143.831 87.5221 144.792 89.9092C145.548 91.7816 146.847 93.3852 148.522 94.5139V94.5139ZM150.492 78.0533C150.722 77.0591 151.208 76.1426 151.903 75.3954C152.183 75.1124 152.518 74.8884 152.886 74.7362C153.254 74.5841 153.649 74.507 154.048 74.5094C154.447 74.5043 154.842 74.5802 155.211 74.7325C155.58 74.8848 155.914 75.1103 156.193 75.3954C156.885 76.1381 157.368 77.0513 157.592 78.0416C157.96 79.461 158.133 80.9239 158.105 82.39C158.136 83.9016 157.968 85.4107 157.603 86.8782C157.372 87.883 156.891 88.8132 156.205 89.5827C155.925 89.8675 155.591 90.0937 155.222 90.2482C154.854 90.4026 154.459 90.4821 154.06 90.4821C153.66 90.4821 153.265 90.4026 152.897 90.2482C152.528 90.0937 152.194 89.8675 151.915 89.5827C151.222 88.8156 150.737 87.8848 150.504 86.8782C150.117 85.4139 149.929 83.9043 149.944 82.39C149.926 80.926 150.11 79.4667 150.492 78.0533V78.0533Z" fill="black"/>
<path d="M182.737 70.8022C180.666 69.8663 178.411 69.4081 176.139 69.4616H168.76V95.5748H176.501C178.694 95.6134 180.866 95.1384 182.842 94.1875C184.711 93.2457 186.234 91.7356 187.191 89.8742C188.332 87.5579 188.877 84.9934 188.776 82.4133C188.879 79.8415 188.325 77.2859 187.167 74.9873C186.171 73.1558 184.62 71.6867 182.737 70.7906V70.8022ZM181.42 87.2279C180.943 88.2906 180.122 89.1613 179.089 89.6993C178.058 90.2134 176.918 90.4695 175.766 90.4454H175.16V74.6026H175.766C176.91 74.5824 178.044 74.8132 179.089 75.2788C180.09 75.7705 180.889 76.5946 181.35 77.6103C181.973 79.1195 182.256 80.7475 182.178 82.3783C182.279 84.0306 182.02 85.6851 181.42 87.2279V87.2279Z" fill="black"/>
<path d="M200.084 84.8615H209.55V79.4873H200.084V74.8359H211.194V69.4617H193.672V95.5749H211.602V90.2007H200.084V84.8615Z" fill="black"/>
<path d="M235.104 82.7397C236.091 81.2731 236.582 79.5281 236.503 77.7618C236.607 75.9818 236.115 74.2177 235.104 72.7491C234.154 71.5359 232.85 70.6479 231.373 70.2077C229.723 69.6996 228.005 69.4479 226.279 69.4616H216.778V95.5748H223.155V86.5051H225.999L230.732 95.5748H237.878L232.049 85.2577C233.25 84.6786 234.291 83.814 235.081 82.7397H235.104ZM223.155 74.5793H225.801C226.944 74.5177 228.084 74.7505 229.112 75.2554C229.517 75.5317 229.84 75.9131 230.045 76.3587C230.251 76.8043 230.331 77.2974 230.278 77.7852C230.312 78.2995 230.224 78.8146 230.021 79.2886C229.819 79.7626 229.507 80.1822 229.112 80.5131C228.146 81.1907 226.978 81.5159 225.801 81.434H223.155V74.5793Z" fill="black"/>
<path d="M257.906 82.32C257.009 81.6175 256 81.0698 254.922 80.6996L251.833 79.4172C250.982 79.0908 250.235 78.811 249.606 78.5546C249.08 78.3583 248.591 78.0745 248.16 77.7152C247.995 77.5707 247.864 77.391 247.777 77.1893C247.691 76.9875 247.65 76.7689 247.659 76.5495C247.643 76.2402 247.711 75.9323 247.857 75.6591C248.003 75.3859 248.221 75.1577 248.487 74.999C249.13 74.6384 249.86 74.4648 250.597 74.4977C251.687 74.4679 252.774 74.6378 253.803 74.999C254.767 75.3789 255.683 75.872 256.531 76.4678L259.736 72.4226C258.542 71.2883 257.13 70.4079 255.586 69.8346C254.097 69.2684 252.517 68.9761 250.923 68.972C249.153 68.9334 247.397 69.3044 245.794 70.0561C244.421 70.6976 243.24 71.6861 242.367 72.9239C241.556 74.0945 241.129 75.4873 241.142 76.9108C241.119 78.0599 241.379 79.197 241.9 80.2216C242.399 81.1368 243.091 81.9324 243.929 82.5532C244.768 83.2249 245.703 83.7671 246.703 84.1619L250.037 85.5608L252.124 86.4235C252.629 86.6193 253.086 86.9214 253.465 87.3095C253.784 87.6812 253.951 88.1603 253.931 88.6501C253.93 88.9225 253.857 89.1898 253.72 89.4252C253.583 89.6605 253.386 89.8556 253.15 89.9907C252.384 90.4087 251.513 90.595 250.643 90.527C249.442 90.5119 248.255 90.2665 247.146 89.8042C245.98 89.3213 244.882 88.6863 243.882 87.9157L240.233 92.2873C241.639 93.5228 243.264 94.4837 245.024 95.1201C246.701 95.7363 248.472 96.0559 250.259 96.0644C252.197 96.1144 254.12 95.7154 255.878 94.8986C257.301 94.2413 258.512 93.1996 259.375 91.891C260.15 90.6766 260.555 89.263 260.541 87.8224C260.568 86.7208 260.34 85.6277 259.876 84.6282C259.423 83.7236 258.779 82.9281 257.988 82.2967L257.906 82.32Z" fill="black"/>
<path d="M133.978 105.747C131.906 104.811 129.651 104.353 127.379 104.407H120V130.485H127.741C129.934 130.523 132.106 130.048 134.082 129.098C135.952 128.156 137.474 126.646 138.431 124.784C139.565 122.465 140.109 119.903 140.016 117.323C140.119 114.751 139.566 112.196 138.407 109.897C137.411 108.066 135.86 106.597 133.978 105.701V105.747ZM132.614 122.173C132.155 123.225 131.359 124.094 130.352 124.644C129.319 125.153 128.181 125.408 127.03 125.39H126.423V109.501H127.03C128.175 109.479 129.31 109.714 130.352 110.189C131.353 110.68 132.153 111.505 132.614 112.52C133.237 114.029 133.519 115.657 133.441 117.288C133.515 118.934 133.232 120.576 132.614 122.103V122.173Z" fill="black"/>
<path d="M149.564 104.407L141.543 130.485H148.153L149.599 124.586H157.106L158.552 130.485H165.325L157.305 104.372L149.564 104.407ZM150.73 119.69L151.254 117.568C151.581 116.286 151.907 114.91 152.234 113.441C152.572 111.973 152.863 110.562 153.131 109.233H153.294C153.621 110.574 153.959 111.973 154.32 113.441C154.682 114.91 155.008 116.286 155.3 117.568L155.824 119.69H150.73Z" fill="black"/>
<path d="M182.998 105.444C181.767 104.633 180.373 104.103 178.914 103.892C177.455 103.682 175.967 103.796 174.557 104.227C173.147 104.658 171.85 105.395 170.758 106.385C169.666 107.376 168.806 108.595 168.239 109.956C167.276 112.301 166.819 114.824 166.899 117.358C166.822 119.93 167.279 122.491 168.239 124.878C169.002 126.737 170.301 128.328 171.97 129.447C173.617 130.493 175.534 131.032 177.484 130.998C179.435 131.039 181.354 130.499 182.998 129.447C184.662 128.322 185.959 126.733 186.729 124.878C187.694 122.492 188.15 119.931 188.069 117.358C188.153 114.824 187.696 112.3 186.729 109.956C185.962 108.114 184.663 106.543 182.998 105.444V105.444ZM181.028 121.847C180.796 122.851 180.315 123.782 179.629 124.551C179.349 124.836 179.015 125.062 178.647 125.217C178.279 125.371 177.883 125.451 177.484 125.451C177.085 125.451 176.689 125.371 176.321 125.217C175.953 125.062 175.619 124.836 175.339 124.551C174.649 123.783 174.164 122.852 173.928 121.847C173.561 120.38 173.393 118.87 173.427 117.358C173.39 115.885 173.559 114.414 173.928 112.987C174.16 111.997 174.646 111.084 175.339 110.341C175.62 110.058 175.954 109.834 176.322 109.681C176.691 109.529 177.086 109.452 177.484 109.455C177.883 109.449 178.279 109.525 178.647 109.678C179.016 109.83 179.35 110.055 179.629 110.341C180.32 111.089 180.802 112.005 181.028 112.998C181.394 114.426 181.563 115.897 181.529 117.37C181.56 118.878 181.391 120.383 181.028 121.847V121.847Z" fill="black"/>
<defs>
<linearGradient id="paint0_linear_2532_27766" x1="-53.1564" y1="71.3771" x2="37.8123" y2="-10.1004" gradientUnits="userSpaceOnUse">
<stop stop-color="#9945FF"/>
<stop offset="1" stop-color="#F9575E"/>
</linearGradient>
<linearGradient id="paint1_linear_2532_27766" x1="-21.721" y1="106.491" x2="69.2477" y2="25.002" gradientUnits="userSpaceOnUse">
<stop stop-color="#9945FF"/>
<stop offset="1" stop-color="#F9575E"/>
</linearGradient>
<linearGradient id="paint2_linear_2532_27766" x1="-0.4414" y1="130.234" x2="90.5159" y2="48.7564" gradientUnits="userSpaceOnUse">
<stop stop-color="#9945FF"/>
<stop offset="1" stop-color="#F9575E"/>
</linearGradient>
<linearGradient id="paint3_linear_2532_27766" x1="30.994" y1="165.336" x2="121.951" y2="83.8588" gradientUnits="userSpaceOnUse">
<stop stop-color="#9945FF"/>
<stop offset="1" stop-color="#F9575E"/>
</linearGradient>
<linearGradient id="paint4_linear_2532_27766" x1="-19.8879" y1="108.517" x2="71.0694" y2="27.0395" gradientUnits="userSpaceOnUse">
<stop stop-color="#9945FF"/>
<stop offset="1" stop-color="#F9575E"/>
</linearGradient>
<linearGradient id="paint5_linear_2532_27766" x1="-2.16069" y1="128.31" x2="88.808" y2="46.8328" gradientUnits="userSpaceOnUse">
<stop stop-color="#9945FF"/>
<stop offset="1" stop-color="#F9575E"/>
</linearGradient>
</defs>
</svg>
