<svg width="40" height="40" viewBox="0 0 40 40" fill="none" xmlns="http://www.w3.org/2000/svg">
<path d="M11.4668 31.4998C10.7835 31.4998 10.2168 30.9331 10.2168 30.2498V26.7998C10.2168 26.1165 10.7835 25.5498 11.4668 25.5498C12.1501 25.5498 12.7168 26.1165 12.7168 26.7998V30.2498C12.7168 30.9498 12.1501 31.4998 11.4668 31.4998Z" fill="#66CC33"/>
<path d="M20 31.5002C19.3167 31.5002 18.75 30.9335 18.75 30.2502V23.3335C18.75 22.6502 19.3167 22.0835 20 22.0835C20.6833 22.0835 21.25 22.6502 21.25 23.3335V30.2502C21.25 30.9502 20.6833 31.5002 20 31.5002Z" fill="#66CC33"/>
<path d="M28.5332 31.5C27.8499 31.5 27.2832 30.9333 27.2832 30.25V19.8833C27.2832 19.2 27.8499 18.6333 28.5332 18.6333C29.2165 18.6333 29.7832 19.2 29.7832 19.8833V30.25C29.7832 30.95 29.2332 31.5 28.5332 31.5Z" fill="#66CC33"/>
<path d="M11.4668 21.9669C10.9001 21.9669 10.4001 21.5835 10.2501 21.0169C10.0835 20.3502 10.4835 19.6669 11.1668 19.5002C17.3001 17.9669 22.7001 14.6169 26.8168 9.83352L27.5835 8.93352C28.0335 8.41686 28.8168 8.35019 29.3501 8.80019C29.8668 9.25019 29.9335 10.0335 29.4835 10.5669L28.7168 11.4669C24.2668 16.6669 18.4001 20.2835 11.7668 21.9335C11.6668 21.9669 11.5668 21.9669 11.4668 21.9669Z" fill="#66CC33"/>
<path d="M28.5332 15.8667C27.8499 15.8667 27.2832 15.3 27.2832 14.6167V11H23.6499C22.9666 11 22.3999 10.4333 22.3999 9.75C22.3999 9.06667 22.9666 8.5 23.6499 8.5H28.5332C29.2166 8.5 29.7832 9.06667 29.7832 9.75V14.6333C29.7832 15.3167 29.2332 15.8667 28.5332 15.8667Z" fill="#66CC33"/>
<path d="M25.0002 37.9168H15.0002C5.95016 37.9168 2.0835 34.0502 2.0835 25.0002V15.0002C2.0835 5.95016 5.95016 2.0835 15.0002 2.0835H25.0002C34.0502 2.0835 37.9168 5.95016 37.9168 15.0002V25.0002C37.9168 34.0502 34.0502 37.9168 25.0002 37.9168ZM15.0002 4.5835C7.31683 4.5835 4.5835 7.31683 4.5835 15.0002V25.0002C4.5835 32.6835 7.31683 35.4168 15.0002 35.4168H25.0002C32.6835 35.4168 35.4168 32.6835 35.4168 25.0002V15.0002C35.4168 7.31683 32.6835 4.5835 25.0002 4.5835H15.0002Z" fill="#66CC33"/>
</svg>
