<svg width="40" height="40" viewBox="0 0 40 40" fill="none" xmlns="http://www.w3.org/2000/svg">
<path d="M10.8664 27.1002C10.5498 27.1002 10.2331 26.9835 9.98311 26.7335C9.49977 26.2502 9.49977 25.4502 9.98311 24.9668L15.0664 19.8835C15.5498 19.4002 16.3498 19.4002 16.8331 19.8835C17.3164 20.3668 17.3164 21.1668 16.8331 21.6502L11.7498 26.7335C11.4998 26.9668 11.1831 27.1002 10.8664 27.1002Z" fill="#764FFF"/>
<path d="M16.0001 27.15C15.6834 27.15 15.3667 27.0333 15.1167 26.7833L10.0334 21.7C9.55007 21.2166 9.55007 20.4166 10.0334 19.9333C10.5167 19.45 11.3167 19.45 11.8001 19.9333L16.8834 25.0166C17.3667 25.5 17.3667 26.3 16.8834 26.7833C16.6334 27.0333 16.3167 27.15 16.0001 27.15Z" fill="#764FFF"/>
<path d="M22.5666 24.9998C21.65 24.9998 20.8833 24.2498 20.8833 23.3332C20.8833 22.4165 21.6166 21.6665 22.5333 21.6665H22.5666C23.4833 21.6665 24.2333 22.4165 24.2333 23.3332C24.2333 24.2498 23.5 24.9998 22.5666 24.9998Z" fill="#764FFF"/>
<path d="M29.1335 24.9998C28.2169 24.9998 27.4502 24.2498 27.4502 23.3332C27.4502 22.4165 28.1835 21.6665 29.1002 21.6665H29.1335C30.0502 21.6665 30.8002 22.4165 30.8002 23.3332C30.8002 24.2498 30.0502 24.9998 29.1335 24.9998Z" fill="#764FFF"/>
<path d="M25.8332 28.2831C24.9165 28.2831 24.1665 27.5498 24.1665 26.6331V26.5998C24.1665 25.6831 24.9165 24.9331 25.8332 24.9331C26.7498 24.9331 27.4998 25.6831 27.4998 26.5998C27.4998 27.5164 26.7665 28.2831 25.8332 28.2831Z" fill="#764FFF"/>
<path d="M25.8332 21.7167C24.9165 21.7167 24.1665 20.9834 24.1665 20.0667V20.0334C24.1665 19.1167 24.9165 18.3667 25.8332 18.3667C26.7498 18.3667 27.4998 19.1167 27.4998 20.0334C27.4998 20.95 26.7665 21.7167 25.8332 21.7167Z" fill="#764FFF"/>
<path d="M25.0002 37.9167H15.0002C5.95016 37.9167 2.0835 34.05 2.0835 25V21.6667C2.0835 12.6167 5.95016 8.75 15.0002 8.75H25.0002C34.0502 8.75 37.9168 12.6167 37.9168 21.6667V25C37.9168 34.05 34.0502 37.9167 25.0002 37.9167ZM15.0002 11.25C7.31683 11.25 4.5835 13.9833 4.5835 21.6667V25C4.5835 32.6833 7.31683 35.4167 15.0002 35.4167H25.0002C32.6835 35.4167 35.4168 32.6833 35.4168 25V21.6667C35.4168 13.9833 32.6835 11.25 25.0002 11.25H15.0002Z" fill="#764FFF"/>
<path d="M21.6502 11.2502H19.9836C18.3836 11.2502 17.0669 9.9335 17.0669 8.3335C17.0669 6.7335 18.3669 5.41683 19.9669 5.41683C20.2336 5.41683 20.4169 5.2335 20.4336 5.00016L20.4502 3.31683C20.4669 2.6335 21.0169 2.0835 21.7002 2.0835H21.7169C22.4002 2.10016 22.9669 2.66683 22.9502 3.35016L22.9336 5.0335C22.9169 6.61683 21.6002 7.91683 20.0169 7.91683C19.7502 7.91683 19.5836 8.10016 19.5836 8.3335C19.5836 8.56683 19.7669 8.75016 20.0002 8.75016H21.6669C22.3502 8.75016 22.9169 9.31683 22.9169 10.0002C22.9169 10.6835 22.3336 11.2502 21.6502 11.2502Z" fill="#764FFF"/>
</svg>
