<svg width="20" height="15" viewBox="0 0 20 15" fill="none" xmlns="http://www.w3.org/2000/svg">
<path d="M16.9419 1.25623C15.6472 0.669368 14.2629 0.24284 12.8158 0C12.638 0.311333 12.4303 0.730074 12.2872 1.0632C10.7487 0.839043 9.22442 0.839043 7.71429 1.0632C7.57116 0.730074 7.35876 0.311333 7.17947 0C5.73067 0.24284 4.34479 0.670924 3.05016 1.25934C0.43887 5.08251 -0.269009 8.81074 0.0849305 12.486C1.81688 13.7391 3.49534 14.5003 5.14548 14.9984C5.55291 14.4552 5.91628 13.8777 6.22933 13.269C5.63314 13.0495 5.06211 12.7787 4.52255 12.4642C4.6657 12.3615 4.8057 12.2541 4.94099 12.1436C8.23187 13.6348 11.8074 13.6348 15.059 12.1436C15.1958 12.2541 15.3358 12.3615 15.4774 12.4642C14.9362 12.7802 14.3637 13.0511 13.7674 13.2706C14.0805 13.8777 14.4423 14.4567 14.8513 15C16.503 14.5019 18.183 13.7407 19.915 12.486C20.3303 8.22543 19.2055 4.53145 16.9419 1.25623ZM6.67765 10.2257C5.68977 10.2257 4.87963 9.33218 4.87963 8.24412C4.87963 7.15599 5.67246 6.26093 6.67765 6.26093C7.68285 6.26093 8.49295 7.15443 8.47565 8.24412C8.47726 9.33218 7.68285 10.2257 6.67765 10.2257ZM13.3223 10.2257C12.3344 10.2257 11.5242 9.33218 11.5242 8.24412C11.5242 7.15599 12.3171 6.26093 13.3223 6.26093C14.3274 6.26093 15.1376 7.15443 15.1203 8.24412C15.1203 9.33218 14.3274 10.2257 13.3223 10.2257Z" fill="black"/>
</svg>
