<svg width="56" height="56" viewBox="0 0 56 56" fill="none" xmlns="http://www.w3.org/2000/svg">
<path d="M49 51.3333H7C6.04333 51.3333 5.25 50.54 5.25 49.5833C5.25 48.6267 6.04333 47.8333 7 47.8333H49C49.9567 47.8333 50.75 48.6267 50.75 49.5833C50.75 50.54 49.9567 51.3333 49 51.3333Z" fill="currentColor"/>
<path d="M44.3803 8.12C39.8537 3.59333 35.4203 3.47666 30.777 8.12L27.9537 10.9433C27.7203 11.1767 27.627 11.55 27.7203 11.8767C29.4937 18.06 34.4403 23.0067 40.6237 24.78C40.717 24.8033 40.8103 24.8267 40.9037 24.8267C41.1603 24.8267 41.3937 24.7333 41.5803 24.5467L44.3803 21.7233C46.6903 19.4367 47.8103 17.22 47.8103 14.98C47.8337 12.67 46.7137 10.43 44.3803 8.12Z" fill="currentColor"/>
<path d="M36.4234 26.9033C35.7468 26.5767 35.0934 26.25 34.4634 25.8767C33.9501 25.5733 33.4601 25.2467 32.9701 24.8967C32.5734 24.64 32.1068 24.2667 31.6634 23.8933C31.6168 23.87 31.4534 23.73 31.2668 23.5433C30.4968 22.89 29.6334 22.05 28.8634 21.1167C28.7934 21.07 28.6768 20.9067 28.5134 20.6967C28.2801 20.4167 27.8834 19.95 27.5334 19.4133C27.2534 19.0633 26.9268 18.55 26.6234 18.0367C26.2501 17.4067 25.9234 16.7767 25.5968 16.1233C25.5097 15.9367 25.4275 15.7517 25.3495 15.5688C25.0634 14.8982 24.1925 14.7042 23.677 15.2197L10.1268 28.77C9.82343 29.0733 9.54343 29.6567 9.47343 30.0533L8.21343 38.99C7.98009 40.5767 8.42343 42.07 9.40343 43.0733C10.2434 43.89 11.4101 44.3333 12.6701 44.3333C12.9501 44.3333 13.2301 44.31 13.5101 44.2633L22.4701 43.0033C22.8901 42.9333 23.4734 42.6533 23.7534 42.35L37.2894 28.814C37.8085 28.2949 37.612 27.4058 36.9351 27.1217C36.7679 27.0516 36.5978 26.9789 36.4234 26.9033Z" fill="currentColor"/>
</svg>
