<svg width="56" height="56" viewBox="0 0 56 56" fill="none" xmlns="http://www.w3.org/2000/svg">
<path d="M40.9034 18.13C40.7401 18.1067 40.5768 18.1067 40.4134 18.13C36.7968 18.0133 33.9268 15.05 33.9268 11.41C33.9268 7.7 36.9368 4.66667 40.6701 4.66667C44.3801 4.66667 47.4134 7.67667 47.4134 11.41C47.3901 15.05 44.5201 18.0133 40.9034 18.13Z" fill="currentColor"/>
<path d="M48.5101 34.3C45.8967 36.05 42.2334 36.7033 38.8501 36.26C39.7367 34.3467 40.2034 32.2233 40.2267 29.9833C40.2267 27.65 39.7134 25.4333 38.7334 23.4967C42.1867 23.03 45.8501 23.6833 48.4867 25.4333C52.1734 27.86 52.1734 31.85 48.5101 34.3Z" fill="currentColor"/>
<path d="M15.0267 18.13C15.19 18.1067 15.3534 18.1067 15.5167 18.13C19.1334 18.0133 22.0034 15.05 22.0034 11.41C22.0034 7.67667 18.9934 4.66667 15.26 4.66667C11.55 4.66667 8.54004 7.67667 8.54004 11.41C8.54004 15.05 11.41 18.0133 15.0267 18.13Z" fill="currentColor"/>
<path d="M15.2831 29.9833C15.2831 32.2467 15.7731 34.3933 16.6598 36.33C13.3698 36.68 9.93979 35.98 7.41979 34.3233C3.73312 31.8733 3.73312 27.8833 7.41979 25.4333C9.91645 23.7533 13.4398 23.0767 16.7531 23.45C15.7965 25.41 15.2831 27.6267 15.2831 29.9833Z" fill="currentColor"/>
<path d="M28.2802 37.03C28.0935 37.0067 27.8835 37.0067 27.6735 37.03C23.3802 36.89 19.9502 33.3667 19.9502 29.0267C19.9735 24.5933 23.5435 21 28.0002 21C32.4335 21 36.0269 24.5933 36.0269 29.0267C36.0035 33.3667 32.5969 36.89 28.2802 37.03Z" fill="currentColor"/>
<path d="M20.6967 41.86C17.1734 44.2167 17.1734 48.09 20.6967 50.4233C24.71 53.1067 31.29 53.1067 35.3034 50.4233C38.8267 48.0667 38.8267 44.1933 35.3034 41.86C31.3134 39.1767 24.7334 39.1767 20.6967 41.86Z" fill="currentColor"/>
</svg>
