<svg width="56" height="56" viewBox="0 0 56 56" fill="none" xmlns="http://www.w3.org/2000/svg">
<path d="M48.9298 24.1967V31.64C48.9298 37.0533 44.5432 41.44 39.1298 41.44H30.8232C29.5398 41.44 28.4898 42.4667 28.4898 43.7733V45.6867C28.4898 46.97 29.5398 48.02 30.8232 48.02H36.0965C37.0065 48.02 37.7532 48.7433 37.7532 49.6767C37.7532 50.5867 37.0065 51.3333 36.0965 51.3333H17.5698C16.6598 51.3333 15.9132 50.5867 15.9132 49.6767C15.9132 48.7433 16.6598 48.02 17.5698 48.02H22.8432C24.1265 48.02 25.1765 46.97 25.1765 45.6867V43.7733C25.1765 42.4667 24.1265 41.44 22.8432 41.44H14.4432C9.05317 41.44 4.6665 37.0533 4.6665 31.64V16.7767C4.6665 11.3867 9.05317 7 14.4432 7H24.4998C25.7832 7 26.8332 8.05 26.8332 9.33333V14.35C26.8332 18.8533 29.8432 21.8633 34.3232 21.8633H46.5965C47.8798 21.8633 48.9298 22.9133 48.9298 24.1967Z" fill="currentColor"/>
<path d="M51.3102 5.50666L48.6735 7.35V6.37C48.6735 4.15333 46.8768 2.38 44.6835 2.38H34.6968C32.2935 2.35666 30.3335 4.31666 30.3335 6.72V14.3733C30.3335 16.38 31.3368 18.3633 34.3235 18.3633H44.6602C46.8768 18.3633 48.6502 16.5667 48.6502 14.3733V13.37L51.2868 15.2133C52.6168 16.1233 53.6668 15.5633 53.6668 13.9767V6.74333C53.6668 5.15666 52.6168 4.62 51.3102 5.50666Z" fill="currentColor"/>
</svg>
