<svg width="210" height="288" viewBox="0 0 210 288" fill="none" xmlns="http://www.w3.org/2000/svg">
<path d="M105.4 295.2C166.6 295.2 209.8 261.2 209.8 212.4C209.8 174 184.6 150.8 153 142C182.2 134 204.6 112.4 204.6 80.8C204.6 32.4 165 0.799978 108.6 0.799978C46.6 0.799978 5 35.6 2.2 90H55C57 62 77 43.6 107.4 43.6C137 43.6 154.2 59.6 154.2 82.8C154.2 110 132.6 122 106.6 122H86.2V165.2H106.2C138.6 165.2 159.8 182.4 159.8 207.6C159.8 236 137.8 252.4 105 252.4C73.8 252.4 51.4 233.6 51.4 197.6H0.200001C0.200001 259.2 39.8 295.2 105.4 295.2Z" fill="black"/>
</svg>
